<?xml version="1.0"?>
<svg xmlns="http://www.w3.org/2000/svg" xmlns:xlink="http://www.w3.org/1999/xlink" xmlns:svgjs="http://svgjs.com/svgjs" version="1.1" width="512" height="512" x="0" y="0" viewBox="0 0 512 512" style="enable-background:new 0 0 512 512" xml:space="preserve" class=""><g>
<g xmlns="http://www.w3.org/2000/svg">
	<g>
		<path d="M471.598,420.538c-5.627,0-9.298,6.063-6.581,11.067c33.793,62.402,31.953,58.47,31.974,60.266    c0.025,3.075-3.588,6.57-7.591,4.429l-84.19-45.569c-2.501-1.359-5.671-1.15-7.971,0.52    c-41.295,29.912-90.151,45.729-141.277,45.729c-133.221,0-241.029-107.797-241.029-240.943    c0-130.99,106.202-240.943,241.029-240.943c195.358,0,311.053,222.416,195.305,382.151c-2.626,3.073-1.769,9.226,3.08,11.308h0.02    c0.002,0.001,0.17,0.08,0.17,0.08s0.01,0,0.02,0c0.643,0.257,1.325,0.41,1.42,0.41l0.02,0.01c1,0,3.391,0.677,6.211-1.69    c0.01-0.01,0.01-0.02,0.02-0.02c0.01-0.01,0.01-0.021,0.02-0.021c0.03-0.03,0.05-0.04,0.07-0.06l-0.02-0.05l0.03,0.04    c1.757-1.554,23.569-30.824,36.844-71.054c19.084-57.84,17.055-122.265-7.301-179.788    C432.019,14.817,260.841-42.769,127.617,34.529c-163.514,94.849-171.46,327.96-14.804,433.737    c87.501,59.082,202.793,58.233,289.365-2.129l80.08,43.36c13.783,7.465,29.707-2.927,29.734-17.626    c0.021-6.714,0.224-4.609-33.794-67.404C476.889,422.047,474.358,420.538,471.598,420.538z" fill="#ff851b" data-original="#000000" class=""/>
	</g>
</g>
<g xmlns="http://www.w3.org/2000/svg">
	<g>
		<path d="M400.32,372.97c-5.771-15.386-112.567-300.073-116.264-309.927c-4.366-11.641-15.656-19.462-28.093-19.462    s-23.727,7.821-28.093,19.462L111.605,372.97c-5.809,15.485,2.068,32.807,17.558,38.614c15.494,5.804,32.82-2.069,38.629-17.552    l20.825-55.515h134.692l20.824,55.513c2.815,7.503,8.382,13.459,15.679,16.775c3.962,1.8,8.177,2.704,12.402,2.704    c3.556,0,7.12-0.64,10.549-1.926C398.252,405.777,406.129,388.455,400.32,372.97z M385.883,389.706    c-1.658,3.647-4.637,6.43-8.39,7.837c-3.75,1.407-7.825,1.269-11.475-0.39c-3.648-1.658-6.432-4.636-7.839-8.386l-22.65-60.38    c-1.098-2.927-3.897-4.866-7.023-4.866H183.418c-3.126,0-5.926,1.939-7.023,4.866l-22.65,60.381    c-2.905,7.74-11.571,11.678-19.315,8.775c-3.751-1.406-6.73-4.189-8.389-7.836c-1.658-3.647-1.797-7.72-0.39-11.471    L241.916,68.308c2.183-5.82,7.828-9.731,14.047-9.731s11.864,3.91,14.047,9.731c3.697,9.854,110.493,294.541,116.264,309.927    C387.68,381.986,387.542,386.06,385.883,389.706z" fill="#ff851b" data-original="#000000" class=""/>
	</g>
</g>
<g xmlns="http://www.w3.org/2000/svg">
	<g>
		<path d="M318.657,283.401c-13.912-37.091-28.763-76.692-39.635-105.655c-9.381-25.024-15.592-41.56-16.032-42.74    c-1.09-2.909-3.911-4.869-7.02-4.869c-3.111,0-5.931,1.959-7.021,4.869c-0.8,2.129-6.211,16.546-14.082,37.531    c-8.41,22.424-19.632,52.338-31.044,82.751c-0.699,1.87-0.63,3.909,0.2,5.738c0.82,1.82,2.311,3.209,4.191,3.909    c0.85,0.32,1.73,0.48,2.63,0.48c3.111,0,5.93-1.95,7.02-4.849c0-0.01,0-0.01,0-0.01c15.022-40.041,29.724-79.211,38.105-101.566    l44.845,119.542H200.303c-3.111,0-5.93,1.96-7.021,4.869c-0.869,2.299-0.55,4.879,0.86,6.898c1.4,2.02,3.7,3.229,6.161,3.229    h111.334c2.46,0,4.76-1.21,6.16-3.229C319.198,288.279,319.518,285.7,318.657,283.401z" fill="#ff851b" data-original="#000000" class=""/>
	</g>
</g>
<g xmlns="http://www.w3.org/2000/svg">
</g>
<g xmlns="http://www.w3.org/2000/svg">
</g>
<g xmlns="http://www.w3.org/2000/svg">
</g>
<g xmlns="http://www.w3.org/2000/svg">
</g>
<g xmlns="http://www.w3.org/2000/svg">
</g>
<g xmlns="http://www.w3.org/2000/svg">
</g>
<g xmlns="http://www.w3.org/2000/svg">
</g>
<g xmlns="http://www.w3.org/2000/svg">
</g>
<g xmlns="http://www.w3.org/2000/svg">
</g>
<g xmlns="http://www.w3.org/2000/svg">
</g>
<g xmlns="http://www.w3.org/2000/svg">
</g>
<g xmlns="http://www.w3.org/2000/svg">
</g>
<g xmlns="http://www.w3.org/2000/svg">
</g>
<g xmlns="http://www.w3.org/2000/svg">
</g>
<g xmlns="http://www.w3.org/2000/svg">
</g>
</g></svg>
