<svg width="1040" height="1040" viewBox="0 0 1040 1040" fill="none" xmlns="http://www.w3.org/2000/svg">
<path d="M824.5 170C824.5 185.012 817.063 201.632 798.688 219.174C780.255 236.772 752.333 253.703 715.893 268.418C643.136 297.797 541.008 316.5 427 316.5C312.992 316.5 210.864 297.797 138.107 268.418C101.667 253.703 73.7449 236.772 55.3117 219.174C36.9368 201.632 29.5 185.012 29.5 170C29.5 154.988 36.9368 138.368 55.3117 120.826C73.7449 103.228 101.667 86.297 138.107 71.5824C210.864 42.2032 312.992 23.5 427 23.5C541.008 23.5 643.136 42.2032 715.893 71.5824C752.333 86.297 780.255 103.228 798.688 120.826C817.063 138.368 824.5 154.988 824.5 170Z" stroke="#FF851B" stroke-width="47"/>
<circle cx="740" cy="740" r="278" stroke="#000" stroke-width="44"/>
<path d="M34.5 231.5C86 266 254 360.7 570 323.5C646.219 311.127 848.444 267.203 849.045 166.609L849 163.5C849.036 164.542 849.052 165.578 849.045 166.609L852.5 403.5C849.667 416.5 840.2 445.3 825 456.5L781 443C789.833 435.167 807.5 414.9 807.5 396.5V271C783.5 297.833 688.9 350.3 502.5 365.5C422.167 372.5 230.4 371 106 309C95.1667 303.167 67.9 287.4 45.5 271L34.5 231.5Z" fill="#FF851B"/>
<rect x="718" y="566" width="43" height="232" fill="#000"/>
<rect x="718" y="845" width="43" height="70" fill="#000"/>
<path d="M0.998204 183.5C1.3982 165.5 6.4982 152 8.9982 147.5L46 270L45 380.5C39.4 412.9 65.3333 440 79 449.5C205.4 540.7 431.333 539.5 528.5 527.5L492.5 576C231.7 594 84.3333 517.167 46 477.5V588.5C86.4 694.1 326.833 719.833 442 719.5L449 757.5L437.5 761.5C190.3 762.7 73.5 694.667 46 660.5V738.5C36.5 794.5 79.8333 824.167 105 835.5C220.2 904.3 408.333 908.833 488 902.5L519.5 944C343.9 959.2 201 926 151.5 907.5C29.5 865.1 0.332136 798.5 0.998204 770.5C0.831538 582.333 0.598204 201.5 0.998204 183.5Z" fill="#FF851B"/>
</svg>
