<svg width="26" height="34" viewBox="0 0 26 34" fill="none" xmlns="http://www.w3.org/2000/svg">
<path d="M21.482 17.8991C21.4976 16.6341 21.8194 15.3937 22.4176 14.2934C23.0158 13.1931 23.8708 12.2687 24.9031 11.6061C24.2473 10.6282 23.3821 9.8235 22.3763 9.25581C21.3705 8.68812 20.2518 8.3731 19.1089 8.33577C16.6711 8.06863 14.3077 9.85875 13.0655 9.85875C11.7991 9.85875 9.88647 8.3623 7.82683 8.40654C6.4946 8.45148 5.19623 8.85593 4.05824 9.5805C2.92024 10.3051 1.98143 11.325 1.33327 12.541C-1.47441 17.6161 0.61987 25.0747 3.30939 29.1769C4.65502 31.1857 6.22767 33.4296 8.28545 33.35C10.2991 33.2628 11.0512 32.0094 13.4818 32.0094C15.8899 32.0094 16.5955 33.35 18.6951 33.2994C20.8558 33.2628 22.2172 31.2817 23.5156 29.2539C24.4824 27.8226 25.2264 26.2407 25.72 24.5667C24.4646 24.0124 23.3934 23.0846 22.6397 21.8989C21.8861 20.7132 21.4834 19.3221 21.482 17.8991Z" fill="white"/>
<path d="M17.5159 5.63817C18.6941 4.16163 19.2745 2.26378 19.1339 0.347656C17.334 0.545023 15.6714 1.44313 14.4773 2.86303C13.8935 3.55668 13.4464 4.36366 13.1615 5.23784C12.8766 6.11201 12.7595 7.03624 12.8169 7.95768C13.7172 7.96736 14.6079 7.76363 15.4218 7.36186C16.2358 6.96008 16.9518 6.37072 17.5159 5.63817Z" fill="white"/>
</svg>
