<svg width="24" height="24" viewBox="0 0 24 24" fill="none" xmlns="http://www.w3.org/2000/svg">
<path d="M23.8807 8.18688L21.6342 5.94036C21.5591 5.86586 21.4576 5.82406 21.3519 5.82406C21.2461 5.82406 21.1447 5.86586 21.0696 5.94036L20.6759 6.334V4.37376C20.6768 4.275 20.6398 4.17967 20.5726 4.10736L16.994 0.131213C16.9569 0.0900228 16.9115 0.0570694 16.8608 0.0344713C16.8101 0.0118733 16.7553 0.000131145 16.6998 0H4.37376C3.84649 0 3.34081 0.209457 2.96798 0.582293C2.59514 0.955128 2.38569 1.4608 2.38569 1.98807V3.18091H1.19284C0.876772 3.18186 0.573916 3.30784 0.350418 3.53133C0.126921 3.75483 0.000943972 4.05769 0 4.37376V10.7356C0.000943972 11.0517 0.126921 11.3545 0.350418 11.578C0.573916 11.8015 0.876772 11.9275 1.19284 11.9284H2.38569V21.8688C2.38569 22.3961 2.59514 22.9017 2.96798 23.2746C3.34081 23.6474 3.84649 23.8569 4.37376 23.8569H18.6879C19.2151 23.8569 19.7208 23.6474 20.0937 23.2746C20.4665 22.9017 20.6759 22.3961 20.6759 21.8688V11.9563L23.8807 8.75149C23.9183 8.71467 23.9482 8.67075 23.9686 8.62229C23.9891 8.57383 23.9998 8.52179 24 8.46918C23.9988 8.36308 23.956 8.26169 23.8807 8.18688ZM10.7873 18.1511L11.1014 17.336L12.4851 18.7197L11.67 19.0338L10.7873 18.1511ZM10.8588 19.3439L10.2346 19.5865L10.4771 18.9622L10.8588 19.3439ZM12.0716 17.1849L11.5109 16.6243L19.666 8.46918L20.2266 9.0338L12.0716 17.1849ZM17.0974 1.43539L19.3837 3.97614H17.495C17.3896 3.97614 17.2884 3.93425 17.2139 3.85968C17.1393 3.78512 17.0974 3.68398 17.0974 3.57853V1.43539ZM1.19284 11.1332C1.08739 11.1332 0.986254 11.0913 0.911687 11.0167C0.83712 10.9422 0.795229 10.841 0.795229 10.7356V4.37376C0.795229 4.2683 0.83712 4.16717 0.911687 4.0926C0.986254 4.01803 1.08739 3.97614 1.19284 3.97614H12.326C12.4315 3.97614 12.5326 4.01803 12.6072 4.0926C12.6818 4.16717 12.7237 4.2683 12.7237 4.37376V10.7356C12.7237 10.841 12.6818 10.9422 12.6072 11.0167C12.5326 11.0913 12.4315 11.1332 12.326 11.1332H7.95229C7.84683 11.1332 7.7457 11.1751 7.67113 11.2497C7.59656 11.3242 7.55467 11.4254 7.55467 11.5308V12.9583L5.84891 11.2485C5.77309 11.1753 5.67201 11.134 5.5666 11.1332H1.19284ZM19.8807 21.8688C19.8798 22.1849 19.7538 22.4877 19.5303 22.7112C19.3068 22.9347 19.0039 23.0607 18.6879 23.0616H4.37376C4.05769 23.0607 3.75483 22.9347 3.53133 22.7112C3.30784 22.4877 3.18186 22.1849 3.18091 21.8688V11.9284H5.40358L7.66998 14.1988C7.74519 14.273 7.84666 14.3144 7.95229 14.3141C8.00445 14.3155 8.0562 14.3046 8.10338 14.2823C8.1764 14.2531 8.23894 14.2025 8.2829 14.1373C8.32686 14.0721 8.3502 13.9952 8.3499 13.9165V11.9284H12.326C12.6421 11.9275 12.945 11.8015 13.1685 11.578C13.392 11.3545 13.5179 11.0517 13.5189 10.7356V4.37376C13.5179 4.05769 13.392 3.75483 13.1685 3.53133C12.945 3.30784 12.6421 3.18186 12.326 3.18091H3.18091V1.98807C3.18186 1.672 3.30784 1.36914 3.53133 1.14565C3.75483 0.92215 4.05769 0.796173 4.37376 0.795229H16.3022V3.57853C16.3031 3.8946 16.4291 4.19746 16.6526 4.42095C16.8761 4.64445 17.179 4.77043 17.495 4.77137H19.8807V7.12923L10.668 16.3419C10.6282 16.3815 10.597 16.4289 10.5765 16.4811L9.17296 20.1352C9.14409 20.2068 9.13699 20.2854 9.15255 20.3611C9.16811 20.4368 9.20564 20.5062 9.26044 20.5606C9.33565 20.6348 9.43712 20.6763 9.54274 20.6759C9.59184 20.6763 9.64052 20.6669 9.68588 20.6481L13.34 19.2445C13.3922 19.2241 13.4396 19.1929 13.4791 19.1531L19.8807 12.7515V21.8688ZM13.1968 18.3101L12.6362 17.7495L20.7873 9.59443L21.3519 10.1551L13.1968 18.3101ZM21.9125 9.59443L20.2266 7.90855L21.3519 6.7833L23.0378 8.46918L21.9125 9.59443Z" fill="white"/>
<path d="M2.38477 5.56665H3.17999V6.36188H2.38477V5.56665Z" fill="white"/>
<path d="M3.97656 5.56665H11.1336V6.36188H3.97656V5.56665Z" fill="white"/>
<path d="M2.38477 7.15698H11.1323V7.95221H2.38477V7.15698Z" fill="white"/>
<path d="M2.38477 8.74756H11.1323V9.54279H2.38477V8.74756Z" fill="white"/>
</svg>
