<svg width="20" height="20" viewBox="0 0 20 20" fill="none" xmlns="http://www.w3.org/2000/svg">
<path d="M19.9006 6.8224L18.0285 4.9503C17.9659 4.88822 17.8814 4.85338 17.7932 4.85338C17.7051 4.85338 17.6205 4.88822 17.558 4.9503L17.23 5.27833V3.6448C17.2307 3.5625 17.1999 3.48306 17.1438 3.4228L14.1617 0.109344C14.1307 0.075019 14.0929 0.0475578 14.0507 0.0287261C14.0084 0.00989445 13.9627 0.000109287 13.9165 0H3.6448C3.20541 0 2.78401 0.174547 2.47332 0.485244C2.16262 0.79594 1.98807 1.21734 1.98807 1.65673V2.65076H0.994036C0.730643 2.65155 0.478263 2.75653 0.292015 2.94278C0.105768 3.12902 0.000786644 3.38141 0 3.6448V8.94632C0.000786644 9.20971 0.105768 9.4621 0.292015 9.64834C0.478263 9.83459 0.730643 9.93957 0.994036 9.94036H1.98807V18.224C1.98807 18.6634 2.16262 19.0848 2.47332 19.3955C2.78401 19.7062 3.20541 19.8807 3.6448 19.8807H15.5732C16.0126 19.8807 16.434 19.7062 16.7447 19.3955C17.0554 19.0848 17.23 18.6634 17.23 18.224V9.96355L19.9006 7.29291C19.9319 7.26222 19.9568 7.22563 19.9739 7.18524C19.9909 7.14486 19.9998 7.10149 20 7.05765C19.999 6.96923 19.9633 6.88474 19.9006 6.8224ZM8.9894 15.1259L9.25116 14.4467L10.4042 15.5997L9.72498 15.8615L8.9894 15.1259ZM9.04904 16.1199L8.52883 16.3221L8.73095 15.8019L9.04904 16.1199ZM10.0596 14.3207L9.59245 13.8535L16.3883 7.05765L16.8555 7.52816L10.0596 14.3207ZM14.2478 1.19616L16.1531 3.31345H14.5792C14.4913 3.31345 14.407 3.27854 14.3449 3.2164C14.2828 3.15426 14.2478 3.06999 14.2478 2.98211V1.19616ZM0.994036 9.27767C0.906158 9.27767 0.821879 9.24276 0.759739 9.18062C0.6976 9.11848 0.662691 9.0342 0.662691 8.94632V3.6448C0.662691 3.55692 0.6976 3.47264 0.759739 3.4105C0.821879 3.34836 0.906158 3.31345 0.994036 3.31345H10.2717C10.3596 3.31345 10.4439 3.34836 10.506 3.4105C10.5681 3.47264 10.603 3.55692 10.603 3.6448V8.94632C10.603 9.0342 10.5681 9.11848 10.506 9.18062C10.4439 9.24276 10.3596 9.27767 10.2717 9.27767H6.62691C6.53903 9.27767 6.45475 9.31258 6.39261 9.37472C6.33047 9.43686 6.29556 9.52113 6.29556 9.60901V10.7985L4.87409 9.37376C4.81091 9.31273 4.72668 9.27832 4.63883 9.27767H0.994036ZM16.5673 18.224C16.5665 18.4874 16.4615 18.7398 16.2752 18.926C16.089 19.1123 15.8366 19.2172 15.5732 19.218H3.6448C3.38141 19.2172 3.12902 19.1123 2.94278 18.926C2.75653 18.7398 2.65155 18.4874 2.65076 18.224V9.94036H4.50298L6.39165 11.8323C6.45432 11.8941 6.53888 11.9287 6.62691 11.9284C6.67037 11.9296 6.7135 11.9205 6.75282 11.9019C6.81366 11.8775 6.86579 11.8355 6.90242 11.7811C6.93905 11.7267 6.9585 11.6626 6.95825 11.5971V9.94036H10.2717C10.5351 9.93957 10.7875 9.83459 10.9737 9.64834C11.16 9.4621 11.265 9.20971 11.2657 8.94632V3.6448C11.265 3.38141 11.16 3.12902 10.9737 2.94278C10.7875 2.75653 10.5351 2.65155 10.2717 2.65076H2.65076V1.65673C2.65155 1.39333 2.75653 1.14095 2.94278 0.954706C3.12902 0.768458 3.38141 0.663477 3.6448 0.662691H13.5852V2.98211C13.5859 3.2455 13.6909 3.49788 13.8772 3.68413C14.0634 3.87038 14.3158 3.97536 14.5792 3.97614H16.5673V5.94102L8.88999 13.6183C8.8568 13.6512 8.83084 13.6907 8.81378 13.7343L7.64413 16.7793C7.62008 16.839 7.61416 16.9045 7.62713 16.9676C7.64009 17.0306 7.67137 17.0885 7.71703 17.1339C7.77971 17.1957 7.86426 17.2302 7.95229 17.23C7.9932 17.2303 8.03376 17.2224 8.07157 17.2068L11.1166 16.0371C11.1602 16.0201 11.1997 15.9941 11.2326 15.9609L16.5673 10.6262V18.224ZM10.9973 15.2584L10.5302 14.7913L17.3227 7.99536L17.7932 8.46256L10.9973 15.2584ZM18.2604 7.99536L16.8555 6.59046L17.7932 5.65275L19.1981 7.05765L18.2604 7.99536Z" fill="#FF851B"/>
<path d="M1.98633 4.63892H2.64902V5.30161H1.98633V4.63892Z" fill="#FF851B"/>
<path d="M3.3125 4.63892H9.27672V5.30161H3.3125V4.63892Z" fill="#FF851B"/>
<path d="M1.98633 5.96423H9.27592V6.62692H1.98633V5.96423Z" fill="#FF851B"/>
<path d="M1.98633 7.28955H9.27592V7.95224H1.98633V7.28955Z" fill="#FF851B"/>
</svg>
