<svg height="512" viewBox="0 0 32 32" width="512" xmlns="http://www.w3.org/2000/svg" style="fill: #fff;"><g id="Layer_2" data-name="Layer 2"><path d="m20.38 29.92h-16.76a2.62 2.62 0 0 1 -2.62-2.62v-10.76a2.62 2.62 0 0 1 2.62-2.62h16.76a2.62 2.62 0 0 1 2.62 2.62v10.76a2.62 2.62 0 0 1 -2.62 2.62zm-16.76-14a.63.63 0 0 0 -.62.62v10.76a.63.63 0 0 0 .62.62h16.76a.63.63 0 0 0 .62-.62v-10.76a.63.63 0 0 0 -.62-.62z"/><path d="m28.48 27.69a2.53 2.53 0 0 1 -1.11-.26l-6.37-3.11v-4.79l6.36-3.11a2.53 2.53 0 0 1 3.64 2.27v6.47a2.53 2.53 0 0 1 -2.52 2.53zm-5.48-4.62 5.24 2.56a.53.53 0 0 0 .76-.47v-6.47a.53.53 0 0 0 -.76-.47l-5.24 2.56z"/><circle cx="14" cy="21.92" r="1"/><circle cx="10" cy="21.92" r="1"/><path d="m6 12.08a5 5 0 1 1 5-5 5 5 0 0 1 -5 5zm0-8a3 3 0 1 0 3 3 3 3 0 0 0 -3-3z"/><path d="m17 12.08a5 5 0 1 1 5-5 5 5 0 0 1 -5 5zm0-8a3 3 0 1 0 3 3 3 3 0 0 0 -3-3z"/></g></svg>