<svg width="32" height="32" viewBox="0 0 32 32" fill="none" xmlns="http://www.w3.org/2000/svg">
<g clip-path="url(#clip0_764_169)">
<path d="M16 32C24.8366 32 32 24.8366 32 16C32 7.16345 24.8366 0 16 0C7.16345 0 0 7.16345 0 16C0 24.8366 7.16345 32 16 32Z" fill="#818181"/>
<path d="M32 16.0001C32 24.8001 24.8 32.0001 16 32.0001C10.9 32.0001 6.40004 29.7001 3.5 26.0001C6.2 28.2001 9.70001 29.5001 13.5 29.5001C22.3 29.5001 29.5 22.3001 29.5 13.5001C29.5 9.70014 28.2 6.20012 26 3.50012C29.7001 6.40002 32 10.9 32 16.0001Z" fill="#717171"/>
<path d="M23.3 23.3001C22.7 23.9001 21.6999 23.9001 21.1 23.3001L16 18.2001L10.9 23.3001C10.3 23.9001 9.29996 23.9001 8.69998 23.3001C8.10001 22.7001 8.10001 21.7001 8.69998 21.1001L13.8 16.0001L8.69998 10.9001C8.10001 10.3001 8.10001 9.30008 8.69998 8.7001C9.29996 8.10013 10.3 8.10013 10.9 8.7001L16 13.8001L21.1 8.7001C21.6999 8.10013 22.7 8.10013 23.3 8.7001C23.8999 9.30008 23.8999 10.3001 23.3 10.9001L18.2 16.0001L23.3 21.1001C23.8999 21.7001 23.8999 22.7 23.3 23.3001Z" fill="white"/>
<path d="M23.3 23.3001C22.7 23.9001 21.6999 23.9001 21.1 23.3001L16 18.2001L10.9 23.3001C10.3 23.9001 9.29996 23.9001 8.69998 23.3001C8.10001 22.7001 8.10001 21.7001 8.69998 21.1001L13.8 16.0001L8.69998 10.9001C8.10001 10.3001 8.10001 9.30008 8.69998 8.7001C9.29996 8.10013 10.3 8.10013 10.9 8.7001L16 13.8001L21.1 8.7001C21.6999 8.10013 22.7 8.10013 23.3 8.7001C23.8999 9.30008 23.8999 10.3001 23.3 10.9001L18.2 16.0001L23.3 21.1001C23.8999 21.7001 23.8999 22.7 23.3 23.3001Z" fill="white"/>
</g>
<defs>
<clipPath id="clip0_764_169">
<rect width="32" height="32" fill="white"/>
</clipPath>
</defs>
</svg>
