<svg width="32" height="32" viewBox="0 0 32 32" fill="none" xmlns="http://www.w3.org/2000/svg">
<g clip-path="url(#clip0_764_164)">
<path d="M16 32C24.8366 32 32 24.8366 32 16C32 7.16345 24.8366 0 16 0C7.16345 0 0 7.16345 0 16C0 24.8366 7.16345 32 16 32Z" fill="#FF851B"/>
<path d="M32 16.0001C32 24.8001 24.8 32.0001 16 32.0001C10.9 32.0001 6.40004 29.7001 3.5 26.0001C6.2 28.2001 9.70001 29.5001 13.5 29.5001C22.3 29.5001 29.5 22.3001 29.5 13.5001C29.5 9.70014 28.2 6.20012 26 3.50012C29.7001 6.40002 32 10.9 32 16.0001Z" fill="#FF7700"/>
<path d="M24.7 11.4L14.3001 22.8001C13.6 23.6001 12.4001 23.6001 11.7 22.8001L7.30002 17.9001C6.70005 17.2 6.70005 16.1001 7.40001 15.4C8.10004 14.8 9.20001 14.8 9.90004 15.5L13 19L22.1 9.10002C22.8001 8.39999 23.9 8.30001 24.6001 9.00004C25.3 9.60002 25.3 10.8 24.7 11.4Z" fill="white"/>
</g>
<defs>
<clipPath id="clip0_764_164">
<rect width="32" height="32" fill="white"/>
</clipPath>
</defs>
</svg>
