<svg height="512" viewBox="0 0 520 520" width="512" xmlns="http://www.w3.org/2000/svg"><g id="_15-Checked" data-name="15-Checked"><path d="m232.019 422.469a10 10 0 0 1 -8.624-4.938c-33.227-56.607-121.81-177.14-122.7-178.351a10 10 0 0 1 1.027-13.039l27.239-26.918a10 10 0 0 1 12.755-1.085l88.222 61.6c59.034-75.7 113.87-128 149.946-158.861 40.616-34.738 66.471-50.377 67.553-51.021a10 10 0 0 1 5.145-1.425h44.068a10 10 0 0 1 6.65 17.469c-125.143 111.464-261.232 349.13-262.592 351.518a10 10 0 0 1 -8.624 5.05z"/><path d="m230.1 464.132c-99.252 0-180-80.747-180-180s80.748-180 180-180a179.651 179.651 0 0 1 58.491 9.72 10 10 0 1 1 -6.5 18.916 159.712 159.712 0 0 0 -52-8.636c-88.225 0-160 71.776-160 160s71.775 160 160 160 160-71.776 160-160a161.236 161.236 0 0 0 -3.246-32.231 10 10 0 1 1 19.6-4.005 181.324 181.324 0 0 1 3.651 36.236c.004 99.253-80.744 180-179.996 180z"/></g></svg>