<svg width="25" height="24" viewBox="0 0 25 24" fill="none" xmlns="http://www.w3.org/2000/svg">
<path d="M20.6647 4.66663H7.99805C7.73283 4.66663 7.47848 4.77198 7.29094 4.95952C7.1034 5.14706 6.99805 5.40141 6.99805 5.66663V21.6666C6.99805 21.9318 7.1034 22.1862 7.29094 22.3737C7.47848 22.5613 7.73283 22.6666 7.99805 22.6666H20.6647C20.9299 22.6666 21.1843 22.5613 21.3718 22.3737C21.5594 22.1862 21.6647 21.9318 21.6647 21.6666V5.66663C21.6647 5.40141 21.5594 5.14706 21.3718 4.95952C21.1843 4.77198 20.9299 4.66663 20.6647 4.66663ZM20.3314 21.3333H8.33138V5.99996H20.3314V21.3333Z" fill="#FF851B"/>
<path d="M18.3307 2.33337C18.3307 2.06816 18.2254 1.8138 18.0378 1.62627C17.8503 1.43873 17.5959 1.33337 17.3307 1.33337H4.66406C4.39885 1.33337 4.14449 1.43873 3.95696 1.62627C3.76942 1.8138 3.66406 2.06816 3.66406 2.33337V18.3334C3.66406 18.5986 3.76942 18.8529 3.95696 19.0405C4.14449 19.228 4.39885 19.3334 4.66406 19.3334H4.9974V2.66671H18.3307V2.33337Z" fill="#FF851B"/>
</svg>
