<svg id="Capa_1" enable-background="new 0 0 512 512" height="512" viewBox="0 0 512 512" width="512" xmlns="http://www.w3.org/2000/svg"><path d="m497 124.355h-345.876c-8.284 0-15 6.716-15 15v233.289c0 8.284 6.716 15 15 15h345.876c8.284 0 15-6.716 15-15v-233.289c0-8.284-6.716-15-15-15zm-330.876 51.873 100.25 61.82-100.25 90.777zm183.172 46.588c-.047.028-.092.057-.139.085l-25.095 15.475-25.191-15.534c-.001 0-.001-.001-.001-.001l-111.06-68.486h272.505zm-56.333 31.629 23.227 14.323c2.413 1.488 5.143 2.232 7.873 2.232s5.46-.744 7.873-2.232l23.226-14.323 113.969 103.2h-290.137zm88.787-16.396 100.25-61.821v152.598z" style=" fill: #ff851b; "/><path d="m91.124 301h-46.124c-8.284 0-15 6.716-15 15s6.716 15 15 15h46.124c8.284 0 15-6.716 15-15s-6.716-15-15-15z" style=" fill: #000; "/><path d="m91.124 241h-76.124c-8.284 0-15 6.716-15 15s6.716 15 15 15h76.124c8.284 0 15-6.716 15-15s-6.716-15-15-15z" style=" fill: #ff851b; "/><path d="m91.124 181h-46.124c-8.284 0-15 6.716-15 15s6.716 15 15 15h46.124c8.284 0 15-6.716 15-15s-6.716-15-15-15z" style=" fill: #000; "/></svg>