<?xml version="1.0"?>
<svg xmlns="http://www.w3.org/2000/svg" xmlns:xlink="http://www.w3.org/1999/xlink" xmlns:svgjs="http://svgjs.com/svgjs" version="1.1" width="512" height="512" x="0" y="0" viewBox="0 0 512 512" style="enable-background:new 0 0 512 512" xml:space="preserve" class=""><g>
<g xmlns="http://www.w3.org/2000/svg">
	<g>
		<path d="M511.99,224.592c0.001-2.042-0.61-4.103-1.904-5.881c-0.448-0.615-0.957-1.158-1.506-1.639    c0.002-0.001,0.003-0.002,0.005-0.004l-34.511-30.203c7.436-5.988,12.206-15.158,12.206-25.426v-16.41c0-44.112-35.888-80-80-80    s-80,35.888-80,80s35.888,80,80,80c5.523,0,10-4.477,10-10s-4.477-10-10-10c-33.084,0-60-26.916-60-60s26.916-60,60-60    s60,26.916,60,60v16.41c0,6.97-5.67,12.64-12.641,12.64c-6.97,0-12.64-5.67-12.64-12.64v-13.818v-28.75    c0-2.75-1.132-5.378-3.13-7.267c-8.578-8.109-19.796-12.575-31.589-12.575c-25.364,0-46,20.636-46,46s20.636,46,46,46    c8.582,0,16.855-2.376,24.033-6.79c5.739,5.87,13.666,9.584,22.449,9.818c0.537,0.938,1.227,1.808,2.086,2.56l31.144,27.256    L406,282.068v-26.07c0-5.523-4.477-10-10-10s-10,4.477-10,10v40.62l-74.654,54.311l-49.463-35.984    c-3.507-2.552-8.259-2.552-11.766,0l-49.463,35.984L26.442,224.188l56.903-49.799c4.156-3.637,4.576-9.955,0.939-14.111    c-3.638-4.156-9.955-4.576-14.111-0.939L3.688,216.838c-0.004,0.004-0.008,0.007-0.012,0.011C1.433,218.683,0,221.47,0,224.593    v277.404c0,5.523,4.477,10,10,10h492c5.523,0,10-4.477,10-10V224.593C511.997,224.593,511.993,224.592,511.99,224.592z     M421,147.622v13.818v5.015c-4.308,2.971-9.412,4.574-14.719,4.574c-14.336,0-26-11.664-26-26s11.664-26,26-26    c5.308,0,10.411,1.603,14.719,4.574V147.622z M20,244.234l163.656,119.061L20,482.356V244.234z M40.744,491.997L256,335.397    l215.256,156.6H40.744z M492,482.356L328.344,363.295L492,244.234V482.356z" fill="#ff851b" data-original="#000000" class=""/>
	</g>
</g>
<g xmlns="http://www.w3.org/2000/svg">
	<g>
		<path d="M337.347,67.239l-74.799-64.8c-3.8-3.293-9.368-3.201-13.065-0.012c-0.003-0.003-0.005-0.005-0.008-0.008l-36,31    c-4.185,3.604-4.656,9.918-1.052,14.103c1.978,2.297,4.771,3.475,7.582,3.475c2.311,0,4.633-0.796,6.521-2.422l29.456-25.365    l48.271,41.818H116c-5.523,0-10,4.477-10,10v143.969c0,5.523,4.477,10,10,10s10-4.477,10-10V85.029h204.799    c-0.033-0.083-0.058-0.155-0.09-0.236c0.028,0,0.057,0.004,0.085,0.004c2.8,0,5.585-1.17,7.563-3.452    C341.973,77.171,341.521,70.855,337.347,67.239z" fill="#ff851b" data-original="#000000" class=""/>
	</g>
</g>
<g xmlns="http://www.w3.org/2000/svg">
	<g>
		<path d="M257.393,165.997h-99.976c-5.523,0-10,4.477-10,10c0,5.523,4.477,10,10,10h99.976c5.523,0,10-4.477,10-10    C267.393,170.474,262.916,165.997,257.393,165.997z" fill="#ff851b" data-original="#000000" class=""/>
	</g>
</g>
<g xmlns="http://www.w3.org/2000/svg">
	<g>
		<path d="M256,115.997h-98.583c-5.523,0-10,4.477-10,10c0,5.523,4.477,10,10,10H256c5.523,0,10-4.477,10-10    C266,120.474,261.523,115.997,256,115.997z" fill="#ff851b" data-original="#000000" class=""/>
	</g>
</g>
<g xmlns="http://www.w3.org/2000/svg">
	<g>
		<path d="M123.07,252.257c-1.86-1.86-4.44-2.93-7.07-2.93s-5.21,1.07-7.07,2.93c-1.86,1.86-2.93,4.44-2.93,7.07    c0,2.64,1.07,5.21,2.93,7.07c1.86,1.871,4.44,2.93,7.07,2.93s5.21-1.06,7.07-2.93c1.86-1.86,2.93-4.43,2.93-7.07    C126,256.697,124.93,254.117,123.07,252.257z" fill="#ff851b" data-original="#000000" class=""/>
	</g>
</g>
<g xmlns="http://www.w3.org/2000/svg">
	<g>
		<path d="M323.589,215.289H304c-5.523,0-10,4.477-10,10s4.477,10,10,10h19.589c5.523,0,10-4.477,10-10    S329.112,215.289,323.589,215.289z" fill="#ff851b" data-original="#000000" class=""/>
	</g>
</g>
<g xmlns="http://www.w3.org/2000/svg">
	<g>
		<path d="M259.811,215.289h-0.11c-5.523,0-10,4.477-10,10s4.477,10,10,10h0.11c5.522,0,10-4.477,10-10    S265.334,215.289,259.811,215.289z" fill="#ff851b" data-original="#000000" class=""/>
	</g>
</g>
<g xmlns="http://www.w3.org/2000/svg">
	<g>
		<path d="M212,215.289h-54.633c-5.523,0-10,4.477-10,10s4.477,10,10,10H212c5.523,0,10-4.477,10-10S217.523,215.289,212,215.289z" fill="#ff851b" data-original="#000000" class=""/>
	</g>
</g>
<g xmlns="http://www.w3.org/2000/svg">
</g>
<g xmlns="http://www.w3.org/2000/svg">
</g>
<g xmlns="http://www.w3.org/2000/svg">
</g>
<g xmlns="http://www.w3.org/2000/svg">
</g>
<g xmlns="http://www.w3.org/2000/svg">
</g>
<g xmlns="http://www.w3.org/2000/svg">
</g>
<g xmlns="http://www.w3.org/2000/svg">
</g>
<g xmlns="http://www.w3.org/2000/svg">
</g>
<g xmlns="http://www.w3.org/2000/svg">
</g>
<g xmlns="http://www.w3.org/2000/svg">
</g>
<g xmlns="http://www.w3.org/2000/svg">
</g>
<g xmlns="http://www.w3.org/2000/svg">
</g>
<g xmlns="http://www.w3.org/2000/svg">
</g>
<g xmlns="http://www.w3.org/2000/svg">
</g>
<g xmlns="http://www.w3.org/2000/svg">
</g>
</g></svg>
