<svg height="512pt" viewBox="0 0 512 512" width="512pt" xmlns="http://www.w3.org/2000/svg">
<path d="m426.667969 448h-341.335938c-17.671875 0-32-14.328125-32-32v-181.332031h21.335938v181.332031c0 5.890625 4.773437 10.667969 10.664062 10.667969h341.335938c5.890625 0 10.664062-4.777344 10.664062-10.667969v-74.667969h21.335938v74.667969c0 17.671875-14.328125 32-32 32zm0 0" style="fill: #ff851b"/>
<path d="m160 490.667969h192v21.332031h-192zm0 0" style="fill: #ff851b"/>
<path d="m181.332031 448h21.335938v53.332031h-21.335938zm0 0" style="fill: #ff851b"/>
<path d="m309.332031 437.332031h21.335938v64h-21.335938zm0 0" style="fill: #ff851b"/>
<path d="m64 362.667969h96v21.332031h-96zm0 0" style="fill: #ff851b"/>
<path d="m192 384c-5.890625 0-10.667969-4.777344-10.667969-10.667969v-53.332031h-21.332031c-17.671875 0-32-14.328125-32-32v-256c0-17.671875 14.328125-32 32-32h320c17.671875 0 32 14.328125 32 32v256c0 17.671875-14.328125 32-32 32h-219.585938l-60.871093 60.875c-2 2-4.714844 3.125-7.542969 3.125zm-32-362.667969c-5.890625 0-10.667969 4.777344-10.667969 10.667969v256c0 5.890625 4.777344 10.667969 10.667969 10.667969h32c5.890625 0 10.667969 4.773437 10.667969 10.664062v38.253907l45.789062-45.792969c2-2 4.714844-3.125 7.542969-3.125h224c5.890625 0 10.667969-4.777344 10.667969-10.667969v-256c0-5.890625-4.777344-10.667969-10.667969-10.667969zm0 0" style="fill: #ff851b"/>
<path d="m256 202.667969h-21.332031v-21.335938h-32c-4.101563.003907-7.84375-2.347656-9.621094-6.042969-1.773437-3.699218-1.273437-8.085937 1.289063-11.289062l42.667968-53.332031c2.828125-3.539063 7.585938-4.90625 11.863282-3.40625 4.273437 1.503906 7.136718 5.539062 7.132812 10.070312v42.667969h10.667969v21.332031h-10.667969zm-31.136719-42.667969h9.804688v-12.257812zm0 0" style="fill: #000"/>
<path d="m426.667969 202.667969h-21.335938v-21.335938h-32c-4.101562.003907-7.839843-2.347656-9.617187-6.042969-1.777344-3.699218-1.277344-8.085937 1.289062-11.289062l42.664063-53.332031c2.832031-3.539063 7.589843-4.90625 11.863281-3.40625 4.277344 1.503906 7.136719 5.539062 7.136719 10.070312v42.667969h10.664062v21.332031h-10.664062zm-31.136719-42.667969h9.800781v-12.257812zm0 0" style="fill: #000"/>
<path d="m320 202.667969h-10.667969c-17.671875 0-32-14.328125-32-32v-32c0-17.675781 14.328125-32 32-32h10.667969c17.671875 0 32 14.324219 32 32v32c0 17.671875-14.328125 32-32 32zm-10.667969-74.667969c-5.890625 0-10.664062 4.777344-10.664062 10.667969v32c0 5.890625 4.773437 10.664062 10.664062 10.664062h10.667969c5.890625 0 10.667969-4.773437 10.667969-10.664062v-32c0-5.890625-4.777344-10.667969-10.667969-10.667969zm0 0" style="fill: #000"/>
<path d="m192 96h-21.332031v-21.332031c0-17.675781 14.324219-32 32-32h21.332031v21.332031h-21.332031c-5.890625 0-10.667969 4.777344-10.667969 10.667969zm0 0" style="fill: #000"/>
<path d="m245.332031 42.667969h21.335938v21.332031h-21.335938zm0 0" style="fill: #000"/>
<path d="m437.332031 277.332031h-21.332031v-21.332031h21.332031c5.890625 0 10.667969-4.777344 10.667969-10.667969v-21.332031h21.332031v21.332031c0 17.675781-14.324219 32-32 32zm0 0" style="fill: #000"/>
<path d="m373.332031 256h21.335938v21.332031h-21.335938zm0 0" style="fill: #000"/>
<path d="m234.667969 362.667969h213.332031v21.332031h-213.332031zm0 0" style="fill: #ff851b"/>
<path d="m96 234.667969c-2.828125 0-5.542969-1.125-7.542969-3.125l-39.539062-39.542969h-16.917969c-17.671875 0-32-14.328125-32-32v-64c0-17.671875 14.328125-32 32-32h74.667969v21.332031h-74.667969c-5.890625 0-10.667969 4.777344-10.667969 10.667969v64c0 5.890625 4.777344 10.667969 10.667969 10.667969h21.332031c2.828125 0 5.542969 1.125 7.542969 3.125l24.457031 24.457031v-16.917969c0-5.890625 4.777344-10.664062 10.667969-10.664062h10.667969v53.332031c0 5.890625-4.777344 10.667969-10.667969 10.667969zm0 0" style="fill: #ff851b"/>
<path d="m42.667969 117.332031h64v21.335938h-64zm0 0" style="fill: #000"/>
</svg>