<svg width="24" height="24" viewBox="0 0 24 24" fill="none" xmlns="http://www.w3.org/2000/svg">
<path d="M10 22H14H10ZM5 9C5 7.14348 5.7375 5.36301 7.05025 4.05025C8.36301 2.7375 10.1435 2 12 2C13.8565 2 15.637 2.7375 16.9497 4.05025C18.2625 5.36301 19 7.14348 19 9C19.0007 10.1271 18.7281 11.2375 18.2056 12.2362C17.6831 13.2348 16.9263 14.0919 16 14.734L15.458 17.3C15.3862 17.773 15.1473 18.2046 14.7846 18.5165C14.4219 18.8284 13.9594 18.9999 13.481 19H10.519C10.0406 18.9999 9.57811 18.8284 9.21539 18.5165C8.85267 18.2046 8.61376 17.773 8.542 17.3L8 14.745C7.07341 14.1006 6.31657 13.2415 5.79415 12.2411C5.27173 11.2407 4.99926 10.1286 5 9V9Z" stroke="#FF851B" stroke-width="2" stroke-linecap="round" stroke-linejoin="round"/>
<path d="M8 15H16" stroke="#FF851B" stroke-width="2" stroke-linecap="round" stroke-linejoin="round"/>
</svg>
