<?xml version="1.0"?>
<svg xmlns="http://www.w3.org/2000/svg" xmlns:xlink="http://www.w3.org/1999/xlink" xmlns:svgjs="http://svgjs.com/svgjs" version="1.1" width="512" height="512" x="0" y="0" viewBox="0 0 512.008 512.008" style="enable-background:new 0 0 512 512" xml:space="preserve" class=""><g><g xmlns="http://www.w3.org/2000/svg"><path d="m255.786 512.008c-65.08 0-126.762-24.294-174.553-68.945-49.965-46.683-78.761-110.03-81.082-178.37-2.321-68.341 22.11-133.495 68.794-183.46 46.683-49.965 110.029-78.761 178.37-81.082 68.346-2.316 133.495 22.111 183.46 68.794s78.761 110.029 81.082 178.37-22.11 133.495-68.794 183.46c-46.683 49.965-110.029 78.761-178.37 81.082-2.974.1-5.946.151-8.907.151zm.423-497.008c-2.792 0-5.582.047-8.385.143-64.337 2.185-123.971 29.293-167.918 76.331-43.948 47.038-66.948 108.374-64.763 172.71s29.293 123.971 76.331 167.918c44.988 42.033 103.063 64.903 164.326 64.906 2.791 0 5.581-.047 8.385-.143 64.336-2.185 123.971-29.293 167.918-76.331 43.948-47.038 66.948-108.374 64.763-172.71s-29.293-123.971-76.331-167.919c-44.988-42.032-103.064-64.905-164.326-64.905zm-.255 461.715c-.338 0-.671-.001-1.009-.002-55.735-.251-108.872-21.358-149.623-59.432-40.752-38.074-65.414-89.657-69.446-145.246-4.009-55.277 12.662-109.563 46.942-152.858 1.301-1.643 3.229-2.667 5.319-2.823 2.085-.157 4.149.568 5.681 1.999l223.118 208.46c3.027 2.828 3.188 7.574.36 10.601s-7.574 3.188-10.6.36l-217.053-202.794c-28.601 39.212-42.346 87.173-38.807 135.969 3.758 51.809 26.744 99.884 64.725 135.371 37.982 35.486 87.506 55.158 139.45 55.392.312.001.629.002.941.002 48.587 0 95.138-16.947 132.082-47.944l-59.255-55.363c-3.027-2.828-3.188-7.574-.36-10.6 2.829-3.027 7.575-3.188 10.601-.36l65.321 61.03c1.531 1.431 2.394 3.437 2.38 5.532-.015 2.096-.905 4.089-2.456 5.499-40.62 36.912-93.257 57.205-148.311 57.207zm167.356-81.04c-1.894 0-3.726-.717-5.12-2.02l-310.524-290.125c-1.531-1.431-2.394-3.437-2.38-5.532.015-2.095.905-4.089 2.456-5.499 81.992-74.507 207.342-76.38 291.575-4.359 3.148 2.692 3.518 7.426.826 10.575-2.691 3.148-7.425 3.518-10.574.826-76.429-65.348-189.178-65.421-265.597-1.305l298.39 278.789c26.625-36.547 40.525-81.217 39.272-126.693-1.327-48.165-19.566-94.487-51.357-130.434-2.744-3.103-2.453-7.843.649-10.587 3.103-2.745 7.843-2.453 10.587.65 34.118 38.578 53.692 88.283 55.115 139.958 1.425 51.721-15.423 102.475-47.439 142.911-1.301 1.643-3.23 2.667-5.319 2.823-.186.015-.374.022-.56.022z" fill="#ff851b" data-original="#000000"/></g></g></svg>
