<svg width="20" height="22" viewBox="0 0 20 22" fill="none" xmlns="http://www.w3.org/2000/svg">
<path d="M10.5654 5.39844H9.43803C9.3349 5.39844 9.25053 5.48282 9.25053 5.58594V12.0383C9.25053 12.0992 9.27865 12.1555 9.32787 12.1906L13.2021 15.0195C13.2865 15.0805 13.4037 15.0641 13.4646 14.9797L14.1349 14.0656C14.1982 13.9789 14.1794 13.8617 14.0951 13.8031L10.7529 11.3867V5.58594C10.7529 5.48282 10.6685 5.39844 10.5654 5.39844ZM15.7169 7.16094L19.3919 8.0586C19.5091 8.08672 19.624 7.99766 19.624 7.87813L19.6427 4.09297C19.6427 3.93594 19.4622 3.84688 19.3404 3.94532L15.6466 6.83047C15.6187 6.85207 15.5975 6.88111 15.5853 6.91424C15.5732 6.94738 15.5706 6.98328 15.578 7.0178C15.5853 7.05232 15.6022 7.08407 15.6268 7.10939C15.6514 7.13471 15.6826 7.15258 15.7169 7.16094V7.16094ZM19.6474 14.218L18.3185 13.7609C18.2722 13.7451 18.2215 13.7479 18.1772 13.769C18.133 13.79 18.0987 13.8275 18.0818 13.8734C18.0372 13.993 17.9904 14.1102 17.9412 14.2274C17.524 15.2141 16.9263 16.1024 16.1622 16.8641C15.4067 17.622 14.5112 18.2261 13.5255 18.643C12.5044 19.0747 11.4068 19.2963 10.2982 19.2945C9.17787 19.2945 8.09271 19.0766 7.07084 18.643C6.08515 18.2261 5.1897 17.622 4.43412 16.8641C3.6724 16.1024 3.07474 15.2141 2.65521 14.2274C2.22587 13.2057 2.00591 12.1082 2.00833 11C2.00833 9.87969 2.2263 8.79219 2.6599 7.77032C3.07708 6.7836 3.67474 5.89532 4.4388 5.1336C5.19438 4.37567 6.08983 3.77154 7.07552 3.35469C8.09271 2.9211 9.18021 2.70313 10.3005 2.70313C11.4208 2.70313 12.506 2.9211 13.5279 3.35469C14.5136 3.77154 15.409 4.37567 16.1646 5.1336C16.4037 5.375 16.6287 5.62579 16.8349 5.89063L18.2365 4.79375C16.3919 2.43594 13.5208 0.919534 10.2958 0.921878C4.68021 0.924221 0.170833 5.48516 0.227083 11.1031C0.283333 16.6227 4.77162 21.0781 10.3005 21.0781C14.6482 21.0781 18.3513 18.3219 19.7622 14.4617C19.7974 14.3633 19.7458 14.2531 19.6474 14.218V14.218Z" fill="black"/>
</svg>
