<?xml version="1.0"?>
<svg xmlns="http://www.w3.org/2000/svg" xmlns:xlink="http://www.w3.org/1999/xlink" xmlns:svgjs="http://svgjs.com/svgjs" version="1.1" width="512" height="512" x="0" y="0" viewBox="0 0 27 27" style="enable-background:new 0 0 512 512" xml:space="preserve" class=""><g><g xmlns="http://www.w3.org/2000/svg" id="_x33_5"><g><path d="m16.8299866 2.8699951v4.0499878c0 .2800293-.2299805.5-.5.5h-5.6499634c-.2800293 0-.5-.2199707-.5-.5v-4.0499878c0-.6199951.5-1.1199951 1.1099854-1.1199951h4.4299927c.6099853 0 1.1099853.5 1.1099853 1.1199951z" fill="#ff851b" data-original="#000000" class=""/></g><path d="m19.7799988 5.9199829h-.9500122v1c0 1.3800049-1.1199951 2.5-2.5 2.5h-5.6499634c-1.3800049 0-2.5-1.1199951-2.5-2.5v-1h-.960022c-1.6799927 0-3.039978 1.3699951-3.039978 3.0499878v13.2399902c0 1.6800537 1.3599854 3.0400391 3.039978 3.0400391h12.5599976c1.6799927 0 3.039978-1.3599854 3.039978-3.0400391v-13.2399902c0-1.6799927-1.3599853-3.0499878-3.039978-3.0499878zm-2.826355 14.8034058h-6.9038086c-.5124512 0-.9255981-.4718018-.8048706-.9697876.3460693-1.4278564 1.3901367-2.5800781 2.7503052-3.0791626-.4212036-.3997192-.6869507-.9612427-.6869507-1.5877075 0-1.2114258.9820557-2.1934204 2.1934204-2.1934204s2.1934204.9819946 2.1934204 2.1934204c0 .6264648-.2657471 1.1879883-.6869507 1.5877075 1.3601685.4990845 2.4042358 1.6513062 2.7503052 3.0791626.1207275.4979858-.2924194.9697876-.8048706.9697876z" fill="#ff851b" data-original="#000000" class=""/></g></g></svg>
