<svg width="24" height="24" viewBox="0 0 24 24" fill="none" xmlns="http://www.w3.org/2000/svg">
<path fill-rule="evenodd" clip-rule="evenodd" d="M7.50095 17.25C7.50095 17.0511 7.57997 16.8603 7.72062 16.7197C7.86127 16.579 8.05204 16.5 8.25095 16.5H21.7509C21.9499 16.5 22.1406 16.579 22.2813 16.7197C22.4219 16.8603 22.5009 17.0511 22.5009 17.25C22.5009 17.4489 22.4219 17.6397 22.2813 17.7803C22.1406 17.921 21.9499 18 21.7509 18H8.25095C8.05204 18 7.86127 17.921 7.72062 17.7803C7.57997 17.6397 7.50095 17.4489 7.50095 17.25ZM7.50095 11.25C7.50095 11.0511 7.57997 10.8603 7.72062 10.7197C7.86127 10.579 8.05204 10.5 8.25095 10.5H21.7509C21.9499 10.5 22.1406 10.579 22.2813 10.7197C22.4219 10.8603 22.5009 11.0511 22.5009 11.25C22.5009 11.4489 22.4219 11.6397 22.2813 11.7803C22.1406 11.921 21.9499 12 21.7509 12H8.25095C8.05204 12 7.86127 11.921 7.72062 11.7803C7.57997 11.6397 7.50095 11.4489 7.50095 11.25ZM7.50095 5.25C7.50095 5.05109 7.57997 4.86032 7.72062 4.71967C7.86127 4.57902 8.05204 4.5 8.25095 4.5H21.7509C21.9499 4.5 22.1406 4.57902 22.2813 4.71967C22.4219 4.86032 22.5009 5.05109 22.5009 5.25C22.5009 5.44891 22.4219 5.63968 22.2813 5.78033C22.1406 5.92098 21.9499 6 21.7509 6H8.25095C8.05204 6 7.86127 5.92098 7.72062 5.78033C7.57997 5.63968 7.50095 5.44891 7.50095 5.25ZM5.78195 3.219C5.85179 3.28867 5.90721 3.37143 5.94502 3.46255C5.98283 3.55367 6.00229 3.65135 6.00229 3.75C6.00229 3.84865 5.98283 3.94633 5.94502 4.03745C5.90721 4.12857 5.85179 4.21133 5.78195 4.281L3.53195 6.531C3.46228 6.60084 3.37952 6.65626 3.2884 6.69407C3.19728 6.73188 3.0996 6.75134 3.00095 6.75134C2.9023 6.75134 2.80461 6.73188 2.7135 6.69407C2.62238 6.65626 2.53962 6.60084 2.46995 6.531L1.71995 5.781C1.65022 5.71127 1.5949 5.62848 1.55716 5.53737C1.51942 5.44626 1.5 5.34861 1.5 5.25C1.5 5.15138 1.51942 5.05373 1.55716 4.96262C1.5949 4.87151 1.65022 4.78873 1.71995 4.719C1.78968 4.64927 1.87246 4.59395 1.96357 4.55621C2.05468 4.51847 2.15233 4.49905 2.25095 4.49905C2.34956 4.49905 2.44721 4.51847 2.53832 4.55621C2.62943 4.59395 2.71222 4.64927 2.78195 4.719L3.00095 4.9395L4.71995 3.219C4.78962 3.14915 4.87238 3.09374 4.9635 3.05593C5.05461 3.01812 5.1523 2.99866 5.25095 2.99866C5.3496 2.99866 5.44728 3.01812 5.5384 3.05593C5.62952 3.09374 5.71228 3.14915 5.78195 3.219ZM5.78195 9.219C5.85179 9.28867 5.90721 9.37143 5.94502 9.46255C5.98283 9.55367 6.00229 9.65135 6.00229 9.75C6.00229 9.84865 5.98283 9.94633 5.94502 10.0374C5.90721 10.1286 5.85179 10.2113 5.78195 10.281L3.53195 12.531C3.46228 12.6008 3.37952 12.6563 3.2884 12.6941C3.19728 12.7319 3.0996 12.7513 3.00095 12.7513C2.9023 12.7513 2.80461 12.7319 2.7135 12.6941C2.62238 12.6563 2.53962 12.6008 2.46995 12.531L1.71995 11.781C1.57912 11.6402 1.5 11.4492 1.5 11.25C1.5 11.0508 1.57912 10.8598 1.71995 10.719C1.86078 10.5782 2.05178 10.4991 2.25095 10.4991C2.45011 10.4991 2.64112 10.5782 2.78195 10.719L3.00095 10.9395L4.71995 9.219C4.78962 9.14915 4.87238 9.09374 4.9635 9.05593C5.05461 9.01812 5.1523 8.99866 5.25095 8.99866C5.3496 8.99866 5.44728 9.01812 5.5384 9.05593C5.62952 9.09374 5.71228 9.14915 5.78195 9.219ZM5.78195 15.219C5.85179 15.2887 5.90721 15.3714 5.94502 15.4625C5.98283 15.5537 6.00229 15.6513 6.00229 15.75C6.00229 15.8486 5.98283 15.9463 5.94502 16.0374C5.90721 16.1286 5.85179 16.2113 5.78195 16.281L3.53195 18.531C3.46228 18.6008 3.37952 18.6563 3.2884 18.6941C3.19728 18.7319 3.0996 18.7513 3.00095 18.7513C2.9023 18.7513 2.80461 18.7319 2.7135 18.6941C2.62238 18.6563 2.53962 18.6008 2.46995 18.531L1.71995 17.781C1.57912 17.6402 1.5 17.4492 1.5 17.25C1.5 17.0508 1.57912 16.8598 1.71995 16.719C1.86078 16.5782 2.05178 16.4991 2.25095 16.4991C2.45011 16.4991 2.64112 16.5782 2.78195 16.719L3.00095 16.9395L4.71995 15.219C4.78962 15.1492 4.87238 15.0937 4.9635 15.0559C5.05461 15.0181 5.1523 14.9987 5.25095 14.9987C5.3496 14.9987 5.44728 15.0181 5.5384 15.0559C5.62952 15.0937 5.71228 15.1492 5.78195 15.219Z" fill="white"/>
</svg>
