<svg width="11" height="10" viewBox="0 0 11 10" fill="none" xmlns="http://www.w3.org/2000/svg">
<path fill-rule="evenodd" clip-rule="evenodd" d="M9.98613 1.01387C10.149 1.17634 10.2783 1.36936 10.3664 1.58186C10.4546 1.79436 10.5 2.02217 10.5 2.25224C10.5 2.48231 10.4546 2.71011 10.3664 2.92261C10.2783 3.13511 10.149 3.32813 9.98613 3.49061L4.7388 8.73794C4.57632 8.90083 4.38331 9.03006 4.17081 9.11824C3.95831 9.20642 3.7305 9.25181 3.50043 9.25181C3.27036 9.25181 3.04255 9.20642 2.83005 9.11824C2.61755 9.03006 2.42454 8.90083 2.26206 8.73794L0.51295 6.98883C0.350325 6.8262 0.221323 6.63314 0.133311 6.42066C0.0452991 6.20818 2.4233e-09 5.98044 0 5.75046C-2.4233e-09 5.52047 0.0452991 5.29274 0.133311 5.08026C0.221323 4.86778 0.350325 4.67471 0.51295 4.51209C0.675575 4.34946 0.868639 4.22046 1.08112 4.13245C1.2936 4.04444 1.52133 3.99914 1.75132 3.99914C1.98131 3.99914 2.20904 4.04444 2.42152 4.13245C2.634 4.22046 2.82707 4.34946 2.98969 4.51209L3.50043 5.02633L7.50939 1.01387C7.67187 0.850978 7.86489 0.721744 8.07739 0.633567C8.28989 0.545389 8.51769 0.5 8.74776 0.5C8.97783 0.5 9.20564 0.545389 9.41814 0.633567C9.63064 0.721744 9.82366 0.850978 9.98613 1.01387Z" fill="#FF851B"/>
</svg>
