<svg width="22" height="21" viewBox="0 0 22 21" fill="none" xmlns="http://www.w3.org/2000/svg">
<path d="M21.7443 13.3083L19.5663 11.3743C19.428 11.2516 19.2405 11.1826 19.045 11.1826C18.8495 11.1826 18.662 11.2516 18.5237 11.3743L11.9896 17.1763C11.8985 17.2571 11.8329 17.3577 11.7993 17.468L10.9901 20.1204C10.9562 20.2316 10.9559 20.3488 10.9894 20.4601C11.0228 20.5714 11.0887 20.6729 11.1804 20.7544C11.2722 20.8358 11.3865 20.8944 11.5119 20.924C11.6372 20.9537 11.7692 20.9534 11.8944 20.9233L14.8816 20.2049C15.0058 20.175 15.1191 20.1168 15.2101 20.0359L21.7443 14.234C21.8825 14.1113 21.9602 13.9448 21.9602 13.7712C21.9602 13.5976 21.8825 13.4311 21.7443 13.3083ZM14.3067 18.9869L12.7494 19.3614L13.1712 17.9787L19.045 12.7629L20.1805 13.7712L14.3067 18.9869ZM9.98576 19.637H2.54369C2.26019 19.6367 1.98839 19.5366 1.78793 19.3586C1.58746 19.1806 1.47469 18.9392 1.47436 18.6875V7.717H20.4858V10.2534C20.4858 10.427 20.5635 10.5935 20.7018 10.7163C20.84 10.839 21.0275 10.908 21.223 10.908C21.4185 10.908 21.606 10.839 21.7443 10.7163C21.8825 10.5935 21.9602 10.427 21.9602 10.2534V3.70554C21.9594 3.10673 21.6912 2.53264 21.2143 2.10922C20.7375 1.6858 20.0909 1.44763 19.4166 1.44696H17.3044V0.654566C17.3044 0.480964 17.2267 0.314473 17.0884 0.191718C16.9502 0.068963 16.7627 0 16.5672 0C16.3717 0 16.1842 0.068963 16.0459 0.191718C15.9077 0.314473 15.83 0.480964 15.83 0.654566V1.44696H6.13026V0.654566C6.13026 0.480964 6.05259 0.314473 5.91434 0.191718C5.77609 0.068963 5.58859 0 5.39308 0C5.19756 0 5.01006 0.068963 4.87181 0.191718C4.73356 0.314473 4.6559 0.480964 4.6559 0.654566V1.44696H2.54369C1.8693 1.44763 1.22275 1.6858 0.74588 2.10922C0.269011 2.53264 0.00076827 3.10673 0 3.70554V18.6875C0.000780439 19.2863 0.269028 19.8604 0.745894 20.2838C1.22276 20.7072 1.8693 20.9454 2.54369 20.9461H9.98576C10.1813 20.9461 10.3688 20.8771 10.507 20.7544C10.6453 20.6316 10.7229 20.4651 10.7229 20.2915C10.7229 20.1179 10.6453 19.9514 10.507 19.8287C10.3688 19.7059 10.1813 19.637 9.98576 19.637ZM2.54369 2.75609H4.6559V3.54844C4.6559 3.72204 4.73356 3.88853 4.87181 4.01129C5.01006 4.13404 5.19756 4.20301 5.39308 4.20301C5.58859 4.20301 5.77609 4.13404 5.91434 4.01129C6.05259 3.88853 6.13026 3.72204 6.13026 3.54844V2.75609H15.83V3.54844C15.83 3.72204 15.9077 3.88853 16.0459 4.01129C16.1842 4.13404 16.3717 4.20301 16.5672 4.20301C16.7627 4.20301 16.9502 4.13404 17.0884 4.01129C17.2267 3.88853 17.3044 3.72204 17.3044 3.54844V2.75609H19.4166C19.7001 2.75637 19.9718 2.85649 20.1723 3.03449C20.3728 3.21248 20.4855 3.45381 20.4858 3.70554V6.40787H1.47436V3.70554C1.47469 3.45381 1.58746 3.21248 1.78793 3.03448C1.98839 2.85649 2.26019 2.75637 2.54369 2.75609Z" fill="white"/>
</svg>
