<svg width="28" height="32" viewBox="0 0 28 32" fill="none" xmlns="http://www.w3.org/2000/svg">
<path d="M0.547141 0.538128C0.162489 1.01828 -0.0317346 1.63382 0.00426332 2.25863V29.3431C-0.0318392 29.9679 0.162396 30.5835 0.547141 31.0636L0.633946 31.1519L15.1666 15.9798V15.6219L0.633946 0.449219L0.547141 0.538128Z" fill="url(#paint0_linear_155_2329)"/>
<path d="M20.0119 21.0381L15.168 15.9787V15.6207L20.0131 10.5625L20.1223 10.6275L25.8617 14.0321C27.5011 15.0045 27.5011 16.5955 25.8617 17.5685L20.1223 20.9731L20.0119 21.0381Z" fill="url(#paint1_linear_155_2329)"/>
<path d="M20.1207 20.9736L15.1664 15.8008L0.546875 31.0634C0.880918 31.371 1.3075 31.5469 1.75271 31.5607C2.19791 31.5744 2.6337 31.4251 2.98455 31.1386L20.1207 20.9736Z" fill="url(#paint2_linear_155_2329)"/>
<path d="M20.1207 10.6269L2.98455 0.461942C2.6337 0.175491 2.19791 0.0261992 1.75271 0.0399321C1.3075 0.053665 0.880918 0.229557 0.546875 0.537134L15.1664 15.7998L20.1207 10.6269Z" fill="#32A071"/>
<path opacity="0.2" d="M20.0114 20.8594L2.98455 30.9597C2.6472 31.2278 2.23548 31.3741 1.81151 31.3765C1.38754 31.3788 0.974335 31.2372 0.634266 30.9728L0.546875 31.0641L0.63368 31.1524L0.634266 31.1517C0.974278 31.4162 1.3875 31.558 1.81151 31.5556C2.23551 31.5533 2.64726 31.4069 2.98455 31.1386L20.1207 20.9733L20.0114 20.8594Z" fill="black"/>
<path opacity="0.12" d="M0.547115 30.8846C0.162499 30.4044 -0.0317196 29.7889 0.00423635 29.1641V29.343C-0.0317412 29.9678 0.16248 30.5833 0.547115 31.0635L0.634506 30.9722L0.547115 30.8846Z" fill="black"/>
<path opacity="0.12" d="M25.8603 17.3895L20.0117 20.8593L20.1209 20.9731L25.8603 17.5685C26.198 17.4155 26.4901 17.1708 26.7064 16.8599C26.9227 16.549 27.0551 16.1833 27.09 15.8008C27.0175 16.1472 26.8685 16.4711 26.6551 16.7469C26.4416 17.0227 26.1695 17.2427 25.8603 17.3895Z" fill="black"/>
<path opacity="0.25" d="M2.98446 0.640003L25.8599 14.2094C26.1692 14.3562 26.4414 14.5763 26.6549 14.8522C26.8684 15.1282 27.0172 15.4523 27.0896 15.7988C27.055 15.4162 26.9226 15.0502 26.7063 14.7392C26.49 14.4281 26.1977 14.1834 25.8599 14.0305L2.98446 0.461077C1.34503 -0.51144 0.00390625 0.296357 0.00390625 2.25682V2.43575C0.00390625 0.475406 1.34503 -0.332392 2.98446 0.640003Z" fill="white"/>
<defs>
<linearGradient id="paint0_linear_155_2329" x1="13.8778" y1="1.97306" x2="-6.65564" y2="21.6411" gradientUnits="userSpaceOnUse">
<stop stop-color="#00A0FF"/>
<stop offset="0.00657" stop-color="#00A1FF"/>
<stop offset="0.2601" stop-color="#00BEFF"/>
<stop offset="0.5122" stop-color="#00D2FF"/>
<stop offset="0.7604" stop-color="#00DFFF"/>
<stop offset="1" stop-color="#00E3FF"/>
</linearGradient>
<linearGradient id="paint1_linear_155_2329" x1="27.9962" y1="15.8003" x2="-0.387489" y2="15.8003" gradientUnits="userSpaceOnUse">
<stop stop-color="#FFE000"/>
<stop offset="0.4087" stop-color="#FFBD00"/>
<stop offset="0.7754" stop-color="#FFA500"/>
<stop offset="1" stop-color="#FF9C00"/>
</linearGradient>
<linearGradient id="paint2_linear_155_2329" x1="17.4286" y1="18.6115" x2="-10.4165" y2="45.2829" gradientUnits="userSpaceOnUse">
<stop stop-color="#FF3A44"/>
<stop offset="1" stop-color="#C31162"/>
</linearGradient>
</defs>
</svg>
