<svg width="25" height="25" viewBox="0 0 25 25" fill="none" xmlns="http://www.w3.org/2000/svg">
<path d="M10.9375 13.875C11.1965 13.875 11.4449 13.9779 11.628 14.161C11.8112 14.3442 11.9141 14.5925 11.9141 14.8515C11.9141 15.1105 11.8112 15.3589 11.628 15.5421C11.4449 15.7252 11.1965 15.8281 10.9375 15.8281C10.6785 15.8281 10.4301 15.7252 10.247 15.5421C10.0638 15.3589 9.96095 15.1105 9.96095 14.8515C9.96095 14.5925 10.0638 14.3442 10.247 14.161C10.4301 13.9779 10.6785 13.875 10.9375 13.875ZM10.9375 6.25467C12.5484 6.25467 13.8328 7.57655 13.8328 9.30155C13.8328 10.2172 13.4984 10.7203 12.6969 11.3609L12.2641 11.6969C11.8797 12 11.75 12.1656 11.7234 12.3969L11.7063 12.6406C11.6715 12.8327 11.566 13.0048 11.4107 13.1231C11.2553 13.2413 11.0613 13.2971 10.8669 13.2795C10.6725 13.2618 10.4917 13.172 10.3602 13.0278C10.2286 12.8835 10.1559 12.6952 10.1563 12.5C10.1563 11.6094 10.4844 11.1187 11.275 10.4875L11.7094 10.1515C12.1594 9.79217 12.2719 9.61717 12.2719 9.30155C12.2719 8.42967 11.675 7.81717 10.9375 7.81717C10.1656 7.81717 9.59532 8.38905 9.60469 9.29374C9.60677 9.50094 9.52644 9.70047 9.3814 9.84845C9.30958 9.92172 9.22403 9.98013 9.12963 10.0203C9.03524 10.0605 8.93385 10.0818 8.83126 10.0828C8.62406 10.0849 8.42452 10.0045 8.27654 9.8595C8.12856 9.71445 8.04427 9.51656 8.04219 9.30936C8.02501 7.53124 9.30001 6.25467 10.9375 6.25467ZM3.12501 10.9375C3.12564 9.24692 3.67465 7.60216 4.68959 6.25016C5.70453 4.89815 7.13065 3.91184 8.75384 3.43931C10.377 2.96678 12.1097 3.03353 13.6917 3.62952C15.2738 4.22552 16.6198 5.3186 17.5277 6.74468C18.4356 8.17076 18.8565 9.85287 18.7271 11.5385C18.5977 13.2241 17.925 14.8222 16.81 16.093C15.695 17.3638 14.1979 18.2386 12.5434 18.5861C10.889 18.9336 9.16642 18.7351 7.63438 18.0203L4.05938 18.7344C3.93336 18.7594 3.80309 18.7531 3.68012 18.7158C3.55715 18.6785 3.44528 18.6114 3.35442 18.5206C3.26356 18.4297 3.19651 18.3178 3.15922 18.1949C3.12193 18.0719 3.11554 17.9416 3.14063 17.8156L3.85469 14.239C3.37255 13.2053 3.12345 12.0782 3.12501 10.9375ZM10.9375 4.68749C9.8677 4.68721 8.81573 4.96155 7.8823 5.48424C6.94887 6.00693 6.16523 6.76047 5.6064 7.67272C5.04757 8.58497 4.73226 9.6254 4.69065 10.6944C4.64904 11.7634 4.88253 12.8252 5.36876 13.7781C5.449 13.9351 5.47378 14.1146 5.43907 14.2875L4.90157 16.9734L7.58751 16.4359C7.76037 16.4012 7.93989 16.426 8.09688 16.5062C8.93864 16.9351 9.86668 17.1677 10.8112 17.1863C11.7558 17.2049 12.6923 17.0091 13.5503 16.6137C14.4083 16.2183 15.1655 15.6336 15.7649 14.9034C16.3644 14.1732 16.7906 13.3166 17.0113 12.3981C17.2321 11.4795 17.2418 10.5228 17.0396 9.59998C16.8374 8.67714 16.4287 7.81213 15.8441 7.06999C15.2595 6.32786 14.5143 5.72791 13.6644 5.31525C12.8146 4.90259 11.8822 4.68796 10.9375 4.68749ZM9.15626 20.1437C10.5446 21.2667 12.2769 21.8779 14.0625 21.875C15.2406 21.875 16.3594 21.614 17.3641 21.1453L20.9406 21.8594C21.0667 21.8845 21.1969 21.8781 21.3199 21.8408C21.4429 21.8035 21.5547 21.7364 21.6456 21.6456C21.7365 21.5547 21.8035 21.4428 21.8408 21.3199C21.8781 21.1969 21.8845 21.0666 21.8594 20.9406L21.1453 17.3656C21.6141 16.3609 21.875 15.2406 21.875 14.0625C21.875 12.2047 21.2266 10.5 20.1438 9.1578C20.3664 10.3146 20.3701 11.5028 20.1547 12.6609C20.4823 14.0927 20.2971 15.594 19.6313 16.9031C19.551 17.0601 19.5262 17.2396 19.5609 17.4125L20.0984 20.0984L17.4109 19.5609C17.2386 19.5266 17.0597 19.5513 16.9031 19.6312C15.5937 20.2981 14.0916 20.4833 12.6594 20.1547C11.5013 20.37 10.313 20.3663 9.15626 20.1437Z" fill="#FF851B"/>
</svg>
