<svg width="12" height="12" viewBox="0 0 12 12" fill="none" xmlns="http://www.w3.org/2000/svg">
<path d="M6.65625 6.65625V2.65625H5.34375V6.65625H6.65625ZM5.375 9.28125C5.5625 9.44792 5.77083 9.53125 6 9.53125C6.22917 9.53125 6.42708 9.44792 6.59375 9.28125C6.78125 9.09375 6.875 8.88542 6.875 8.65625C6.875 8.42708 6.78125 8.22917 6.59375 8.0625C6.42708 7.89583 6.22917 7.8125 6 7.8125C5.77083 7.8125 5.5625 7.89583 5.375 8.0625C5.20833 8.22917 5.125 8.42708 5.125 8.65625C5.125 8.88542 5.20833 9.09375 5.375 9.28125ZM8.5 0L12 3.5V8.5L8.5 12H3.5L0 8.5V3.5L3.5 0H8.5Z" fill="#FF851B"/>
</svg>
