<svg width="26" height="23" viewBox="0 0 26 23" fill="none" xmlns="http://www.w3.org/2000/svg">
<g clip-path="url(#clip0_318_2555)">
<path d="M25.0599 12.5164L19.491 17.6096C19.184 17.8903 18.7818 18.0307 18.3795 18.0307C17.9772 18.0307 17.575 17.8903 17.2681 17.6096C16.6543 17.0482 16.6543 16.1381 17.2681 15.5767L20.1538 12.9375H1.94337C1.0753 12.9375 0.371582 12.2939 0.371582 11.5C0.371582 10.7061 1.0753 10.0625 1.94337 10.0625H20.1538L17.2681 7.42334C16.6543 6.86195 16.6543 5.95179 17.2681 5.3904C17.8819 4.82901 18.8771 4.82901 19.491 5.3904L25.0599 10.4836C25.6737 11.0449 25.6737 11.9551 25.0599 12.5164Z" fill="white"/>
</g>
<defs>
<clipPath id="clip0_318_2555">
<rect width="25.1487" height="23" fill="white" transform="translate(0.371582)"/>
</clipPath>
</defs>
</svg>
