<svg width="70" height="70" viewBox="0 0 70 70" fill="none" xmlns="http://www.w3.org/2000/svg">
<g clip-path="url(#clip0_1183_721)">
<path d="M41.8373 44.112C42.7037 44.112 43.514 43.7705 44.119 43.1504L49.4935 37.64C50.7202 36.3822 50.6947 34.361 49.4368 33.1342C48.1788 31.9077 46.1572 31.9331 44.9305 33.1908L41.7777 36.4231L41.2253 35.8861C39.9656 34.6616 37.9441 34.6897 36.7189 35.9492C35.4942 37.2088 35.5225 39.2301 36.7822 40.4549L39.6159 43.2101C40.214 43.7917 41.003 44.112 41.8373 44.112ZM38.1925 37.3818C38.6278 36.9342 39.346 36.9249 39.7929 37.3595L41.0807 38.6117C41.487 39.007 42.1367 38.9981 42.5326 38.5924L46.4018 34.6257C46.8376 34.1787 47.5555 34.1701 48.0021 34.6054C48.4489 35.0412 48.4577 35.7589 48.0223 36.2056L42.6477 41.7158C42.2324 42.16 41.4758 42.1694 41.0485 41.7371L38.2149 38.9819C37.7677 38.5469 37.7575 37.829 38.1925 37.3818Z" fill="#FF851B"/>
<path d="M33.8946 44.8113C33.5528 44.3584 32.9087 44.2682 32.4553 44.61C32.0023 44.9518 31.9123 45.596 32.254 46.0489C32.6282 46.5448 33.0421 47.0203 33.484 47.4622C36.0104 49.9883 39.3695 51.3794 42.9424 51.3794C46.5152 51.3794 49.8741 49.9883 52.4006 47.4622C54.9271 44.9362 56.3184 41.5775 56.3184 38.0052C56.3184 34.4327 54.927 31.0743 52.4006 28.5482C47.1852 23.3336 38.6994 23.3338 33.484 28.5482C29.9284 32.1033 28.6701 37.2895 30.2004 42.0828C30.373 42.6234 30.9516 42.9215 31.4917 42.7492C32.0323 42.5767 32.3308 41.9985 32.1581 41.458C30.8627 37.4005 31.9276 33.0105 34.9373 30.0013C39.3512 25.5879 46.5335 25.5879 50.9474 30.0013C53.0857 32.1393 54.2634 34.9818 54.2634 38.0053C54.2634 41.0289 53.0857 43.8714 50.9474 46.0094C48.8092 48.1473 45.9663 49.3248 42.9424 49.3248C39.9185 49.3248 37.0755 48.1474 34.9372 46.0094C34.5623 45.6343 34.2115 45.2313 33.8946 44.8113Z" fill="#FF851B"/>
<path d="M68.5862 56.7753L62.1037 50.2936C61.7023 49.8925 61.0518 49.8924 60.6504 50.2936L60.6107 50.3333L58.116 47.839C59.793 45.2536 60.7922 42.2665 60.9888 39.1489C61.0244 38.5826 60.5942 38.0946 60.0279 38.0588C59.462 38.0244 58.9737 38.4534 58.9377 39.0195C58.6923 42.9118 57.0365 46.5758 54.2753 49.3366C51.1549 52.4568 47.057 54.0187 42.9579 54.0226C42.9527 54.0225 42.9476 54.0218 42.9423 54.0218H42.8607C38.7837 54.0013 34.7131 52.44 31.6093 49.3366C28.582 46.3099 26.9149 42.2856 26.9149 38.0051C26.9149 33.7246 28.582 29.7002 31.6093 26.6736C37.8583 20.4252 48.0263 20.4252 54.2753 26.6736C56.6028 29.0008 58.1387 31.9363 58.7172 35.163C58.8174 35.7215 59.3517 36.0925 59.9099 35.993C60.4685 35.8929 60.8401 35.359 60.7401 34.8004C60.0871 31.1586 58.3542 27.8459 55.7285 25.2205C54.4275 23.9196 52.9755 22.8596 51.4288 22.0389V13.7584C51.428 13.488 51.3188 13.2233 51.1279 13.0319L38.3953 0.300918C38.2038 0.110332 37.9392 0.000683594 37.6685 0H3.08249C1.3828 0 -0.000107422 1.38264 -0.000107422 3.08219V11.7178C-0.000107422 12.2851 0.459814 12.7452 1.02747 12.7452C1.59499 12.7452 2.05505 12.2853 2.05505 11.7178V3.08219C2.05505 2.51562 2.51593 2.05475 3.08263 2.05475H36.6413V11.7037C36.6413 13.4032 38.0243 14.7859 39.7239 14.7859H49.3741V21.1084C47.3692 20.3488 45.2556 19.9586 43.1385 19.9358C43.1284 19.9344 43.1185 19.9324 43.108 19.9324H20.1666C19.5991 19.9324 19.139 20.3924 19.139 20.9598C19.139 21.5272 19.5991 21.9872 20.1666 21.9872H34.553C33.0872 22.7537 31.7055 23.7348 30.4543 24.9301H20.1666C19.5991 24.9301 19.139 25.3902 19.139 25.9576C19.139 26.5249 19.5991 26.985 20.1666 26.985H28.6049C26.9276 29.1576 25.7814 31.6598 25.2327 34.3309H20.1667C19.5992 34.3309 19.1392 34.791 19.1392 35.3583C19.1392 35.9257 19.5992 36.3858 20.1667 36.3858H24.9326C24.8853 36.9213 24.8603 37.4613 24.8603 38.0054C24.8603 38.4516 24.8766 38.8954 24.9084 39.336H20.1669C19.5993 39.336 19.1393 39.7961 19.1393 40.3635C19.1393 40.9309 19.5993 41.3909 20.1669 41.3909H25.1762C25.7003 44.1719 26.8687 46.7778 28.608 49.0294H20.1669C19.5993 49.0294 19.1393 49.4893 19.1393 50.0568C19.1393 50.6244 19.5993 51.0843 20.1669 51.0843H30.4584C31.7078 52.2774 33.0873 53.2569 34.5505 54.0224H20.1663C19.5988 54.0224 19.1387 54.4824 19.1387 55.0498C19.1387 55.6172 19.5988 56.0772 20.1663 56.0772H42.9423C45.1246 56.077 47.307 55.685 49.3738 54.902V66.9184C49.3738 67.4848 48.9129 67.9458 48.3462 67.9458H3.08249C2.51593 67.9458 2.05491 67.4849 2.05491 66.9184V15.8279C2.05491 15.2605 1.59485 14.8005 1.02733 14.8005C0.459814 14.8005 -0.000244141 15.2604 -0.000244141 15.8279V66.9184C-0.000107422 68.6174 1.3828 70 3.08249 70H48.3464C50.0461 70 51.429 68.6174 51.429 66.9178V53.971C51.8875 53.7276 52.3376 53.4629 52.778 53.1774L55.2721 55.6712C54.8405 56.048 54.8174 56.766 55.2324 57.1639L61.715 63.6457C63.5234 65.5304 66.7778 65.5303 68.5861 63.6457C70.4712 61.8375 70.471 58.5834 68.5862 56.7753ZM39.7238 12.7311C39.1572 12.7311 38.6962 12.2702 38.6962 11.7037V3.50779L47.9208 12.7311H39.7238ZM54.4542 51.9474C54.8926 51.5849 55.3183 51.1997 55.7285 50.7896C56.1362 50.382 56.522 49.9563 56.8862 49.5154L59.1574 51.7862L56.7252 54.218L54.4542 51.9474ZM67.133 62.1927C66.0896 63.2803 64.2118 63.28 63.1682 62.1927L57.4121 56.4374L61.377 52.4729L67.1332 58.2282C68.2206 59.2718 68.2208 61.1492 67.133 62.1927Z" fill="#FF851B"/>
<path d="M9.32475 28.0004H13.8201C15.0874 28.0004 16.1186 26.9696 16.1186 25.7024V21.2077C16.1186 19.9404 15.0876 18.9096 13.8201 18.9096H9.32475C8.0575 18.9096 7.02637 19.9404 7.02637 21.2077V25.7024C7.02637 26.9696 8.0575 28.0004 9.32475 28.0004ZM9.08152 21.2077C9.08152 21.0736 9.19076 20.9645 9.32475 20.9645H13.8201C13.9543 20.9645 14.0634 21.0736 14.0634 21.2077V25.7024C14.0634 25.8366 13.9542 25.9457 13.8201 25.9457H9.32475C9.19063 25.9457 9.08152 25.8366 9.08152 25.7024V21.2077Z" fill="#FF851B"/>
<path d="M7.02637 40.1081C7.02637 41.3752 8.05736 42.4061 9.32475 42.4061H13.8201C15.0874 42.4061 16.1186 41.3752 16.1186 40.1081V35.6133C16.1186 34.3462 15.0876 33.3154 13.8201 33.3154H9.32475C8.0575 33.3154 7.02637 34.3462 7.02637 35.6133V40.1081ZM9.08152 35.6133C9.08152 35.4792 9.19076 35.3701 9.32475 35.3701H13.8201C13.9543 35.3701 14.0634 35.4792 14.0634 35.6133V40.1081C14.0634 40.2422 13.9542 40.3513 13.8201 40.3513H9.32475C9.19063 40.3513 9.08152 40.2422 9.08152 40.1081V35.6133Z" fill="#FF851B"/>
<path d="M7.02637 54.8065C7.02637 56.0736 8.05736 57.1044 9.32475 57.1044H13.8201C15.0874 57.1044 16.1186 56.0736 16.1186 54.8065V50.3117C16.1186 49.0444 15.0876 48.0136 13.8201 48.0136H9.32475C8.0575 48.0136 7.02637 49.0444 7.02637 50.3117V54.8065ZM9.08152 50.3117C9.08152 50.1776 9.19076 50.0685 9.32475 50.0685H13.8201C13.9543 50.0685 14.0634 50.1776 14.0634 50.3117V54.8065C14.0634 54.9406 13.9542 55.0497 13.8201 55.0497H9.32475C9.19063 55.0497 9.08152 54.9406 9.08152 54.8065V50.3117Z" fill="#FF851B"/>
</g>
<defs>
<clipPath id="clip0_1183_721">
<rect width="70" height="70" fill="white"/>
</clipPath>
</defs>
</svg>
