<svg enable-background="new 0 0 512 512" height="512" viewBox="0 0 512 512" width="512" xmlns="http://www.w3.org/2000/svg"><g id="_x32_2_signboard"><g><path d="m450.439 1.9998h-388.878c-33.9448 0-61.561 24.6655-61.561 54.9834v217.9673c0 30.334 27.6162 55.0122 61.561 55.0122h150.4448v57.4468c-12.2131 9.8877-22.2208 21.5261-29.3442 34.1863-12.6113-10.3232-23.1127-19.5029-30.1104-25.7722-2.0054-1.7954-3.5225-3.3735-4.7417-4.6416-2.7739-2.8862-5.9194-6.1572-10.8926-5.1201-5.2139 1.0859-6.7368 5.1914-9.501 12.6445l-.9199 2.4722c-8.1655 21.7583-11.8828 42.854-10.75 61.0054.7941 12.7222 3.9816 23.8035 9.3424 32.8159h-7.2906c-4.1421 0-7.5 3.3579-7.5 7.5s3.3579 7.5 7.5 7.5h75.2788 18.9935c.0035 0 .0069.0005.0104.0005.0029 0 .0057-.0005.0086-.0005h32.2141 104.4278c4.1421 0 7.5-3.3579 7.5-7.5s-3.3579-7.5-7.5-7.5h-48.6226v-165.0373h150.3306c33.9448 0 61.561-24.6782 61.561-55.0122v-217.9672c0-30.3179-27.6162-54.9834-61.561-54.9834zm-306.4674 493c-16.612-16.1904-17.999-49.7339-3.4296-88.5562l.3569-.96c.5142.4858 1.0615.9912 1.645 1.5137 7.6569 6.8596 19.4401 17.1479 33.5866 28.6265-1.748 4.6816-3.1234 9.4529-4.0681 14.2881-3.2355 16.5601-1.034 32.2908 6.0175 45.0879zm96.6588 0h-21.685c-.784-11.89.1772-22.1633 2.8471-29.9785 1.3394-3.9199-.7529-8.1831-4.6724-9.522-3.9214-1.3374-8.1831.7529-9.522 4.6724-3.2719 9.5768-4.5009 21.2686-3.6869 34.8281h-7.6227c-9.3989-10.6221-12.7725-25.4839-9.5044-42.2119 3.3595-17.1948 14.7317-38.4521 36.6617-55.4155.452-.28.8728-.6039 1.2541-.9705 5.2473-3.9463 11.0805-7.6465 17.5334-10.9919-.3491 12.4907.939 19.4375 3.0327 30.7339 1.2891 6.9526 2.8926 15.6045 4.6333 28.5503 2.6075 19.2792-1.0145 38.5433-9.2689 50.3056zm44.478 0h-27.2242c6.8467-14.3982 9.4613-33.2314 6.8805-52.3105-1.7891-13.3086-3.4307-22.1636-4.7495-29.2793-2.542-13.7129-3.7021-19.9712-2.0815-39.438.2168-2.6021-.9355-5.1294-3.042-6.6724-2.1055-1.543-4.8638-1.8794-7.2793-.8882-7.2525 2.9757-14.1409 6.48-20.6064 10.4263v-46.875h58.1025v165.0371zm211.8916-220.0494c0 22.063-20.8872 40.0122-46.561 40.0122h-388.878c-25.6738 0-46.561-17.9492-46.561-40.0122v-217.9672c0-22.0469 20.8872-39.9834 46.561-39.9834h388.878c25.6738 0 46.561 17.9365 46.561 39.9834z" style="fill: #ff851b"/><path d="m227.3777 155.0759c2.9355 0 5.7227-1.7344 6.9243-4.6128l4.1649-9.9775h27.0447l4.1708 9.9805c1.2021 2.8765 3.9883 4.6099 6.9229 4.6099.9639 0 1.9438-.187 2.8892-.582 3.8218-1.5972 5.625-5.9902 4.0278-9.812l-5.3981-12.917c-.1931-1.1763-.6573-2.2583-1.3301-3.1829l-17.8969-42.8254c-1.5967-3.8213-5.9893-5.626-9.812-4.0278-1.7628.7367-3.0887 2.0714-3.857 3.6672-.0571.1072-.1145.2251-.1723.3635l-24.5967 58.9253c-1.5952 3.8228.21 8.2148 4.0322 9.8105.9444.394 1.9234.5805 2.8863.5805zm24.6037-46.9665 7.2616 17.3762h-14.5148z" style="fill: #ff851b"/><path d="m126.6462 81.1487h-42.6362c-4.1421 0-7.5 3.3579-7.5 7.5s3.3579 7.5 7.5 7.5h13.8037v51.4253c0 4.1421 3.3579 7.5 7.5 7.5s7.5-3.3579 7.5-7.5v-51.4253h13.8325c4.1421 0 7.5-3.3579 7.5-7.5s-3.3579-7.5-7.5-7.5z" style="fill: #ff851b"/><path d="m163.7537 147.574v-21.9624h25.5742v21.9624c0 4.1421 3.3579 7.5 7.5 7.5s7.5-3.3579 7.5-7.5v-58.9253c0-4.1421-3.3579-7.5-7.5-7.5s-7.5 3.3579-7.5 7.5v21.9629h-25.5742v-21.9629c0-4.1421-3.3579-7.5-7.5-7.5s-7.5 3.3579-7.5 7.5v58.9253c0 4.1421 3.3579 7.5 7.5 7.5s7.5-3.3579 7.5-7.5z" style="fill: #ff851b"/><path d="m351.824 81.1487c-4.1421 0-7.5 3.3579-7.5 7.5v36.3618l-30.5313-40.8516c-2.48-3.3174-7.1787-3.9961-10.4976-1.5181-1.9366 1.4475-2.9667 3.6517-3.002 5.8955-.0009.041-.0082.0695-.0082.1123v58.9253c0 4.1421 3.3579 7.5 7.5 7.5s7.5-3.3579 7.5-7.5v-36.3618l30.5313 40.8516c.0186.0249.0378.0404.0566.0618 1.3707 1.7896 3.523 2.9485 5.9512 2.9485 4.1421 0 7.5-3.3579 7.5-7.5v-58.9253c0-4.1421-3.3579-7.5-7.5-7.5z" style="fill: #ff851b"/><path d="m433.4382 83.4944c-2.8467-3.0088-7.5938-3.1416-10.6025-.2939l-28.9507 27.3884v-21.9402c0-4.1421-3.3579-7.5-7.5-7.5s-7.5 3.3579-7.5 7.5v58.9253c0 4.1421 3.3579 7.5 7.5 7.5s7.5-3.3579 7.5-7.5v-16.3363l11.1586-10.5565 15.3087 30.2771c1.3203 2.6118 3.9595 4.1172 6.6987 4.1172 1.1377 0 2.2935-.2598 3.3784-.8086 3.6963-1.8687 5.1777-6.3804 3.3086-10.0771l-17.3248-34.2646 16.731-15.8281c3.0089-2.8469 3.1407-7.5939.294-10.6027z" style="fill: #ff851b"/><path d="m211.0779 189.4861c-3.3779-2.3979-8.0601-1.604-10.4575 1.7729l-14.8453 20.9077-14.8446-20.9072c-2.3984-3.3784-7.0811-4.1714-10.457-1.7734-3.3774 2.3979-4.1714 7.0801-1.7734 10.457l19.5752 27.5697v27.0138c0 4.1421 3.3579 7.5 7.5 7.5s7.5-3.3579 7.5-7.5v-27.0132l19.5757-27.5698c2.3978-3.3774 1.6038-8.0596-1.7731-10.4575z" style="fill: #ff851b"/><path d="m254.9548 188.2444c-17.2085 0-31.2085 13.9766-31.2085 31.1558v11.499c0 17.1953 14 31.1846 31.2085 31.1846s31.209-13.9893 31.209-31.1846v-11.499c0-17.1793-14.0005-31.1558-31.209-31.1558zm16.209 42.6548c0 8.9243-7.2715 16.1846-16.209 16.1846s-16.2085-7.2603-16.2085-16.1846v-11.499c0-8.9082 7.271-16.1558 16.2085-16.1558s16.209 7.2476 16.209 16.1558z" style="fill: #ff851b"/><path d="m348.2444 188.1013c-4.1421 0-7.5 3.3579-7.5 7.5v40.0176c0 11.0806-11.0156 11.4004-12.2715 11.4004-1.2563 0-12.272-.3198-12.272-11.4004v-40.0176c0-4.1421-3.3579-7.5-7.5-7.5s-7.5 3.3579-7.5 7.5v40.0176c0 17.332 13.7192 26.4004 27.272 26.4004 13.5522 0 27.2715-9.0684 27.2715-26.4004v-40.0176c0-4.1421-3.3579-7.5-7.5-7.5z" style="fill: #ff851b"/><path d="m386.385 188.1013c-4.1421 0-7.5 3.3579-7.5 7.5v30.4351c0 4.1421 3.3579 7.5 7.5 7.5s7.5-3.3579 7.5-7.5v-30.4351c0-4.1421-3.3579-7.5-7.5-7.5z" style="fill: #ff851b"/><path d="m386.385 246.6545c-4.1421 0-7.5 3.3579-7.5 7.5v.3721c0 4.1421 3.3579 7.5 7.5 7.5s7.5-3.3579 7.5-7.5v-.3721c0-4.142-3.3579-7.5-7.5-7.5z" style="fill: #ff851b"/></g></g></svg>