<svg id="Capa_1" enable-background="new 0 0 512 512" height="512" viewBox="0 0 512 512" width="512" xmlns="http://www.w3.org/2000/svg"><g><path d="m452 392c-11.126 0-21.538 3.04-30.47 8.317l-38.79-38.79c-6.417 7.694-13.519 14.796-21.213 21.213l38.79 38.79c-5.277 8.932-8.317 19.344-8.317 30.47 0 33.137 26.863 60 60 60s60-26.863 60-60-26.863-60-60-60z"/><path d="m60 120c11.126 0 21.538-3.04 30.47-8.317l38.79 38.79c6.417-7.694 13.519-14.796 21.213-21.213l-38.79-38.79c5.277-8.932 8.317-19.344 8.317-30.47 0-33.137-26.863-60-60-60s-60 26.863-60 60 26.863 60 60 60z"/><path d="m276.737 301h-41.474c-24.407 0-44.263 19.856-44.263 44.263v29.025c19.294 10.645 41.45 16.712 65 16.712s45.706-6.067 65-16.712v-29.025c0-24.407-19.856-44.263-44.263-44.263z"/><path d="m391 256c0-74.439-60.561-135-135-135s-135 60.561-135 135c0 37.428 15.314 71.343 40 95.82v-6.557c0-31.165 19.306-57.889 46.578-68.889-7.271-9.927-11.578-22.154-11.578-35.374 0-33.084 26.916-60 60-60s60 26.916 60 60c0 13.22-4.307 25.447-11.578 35.374 27.272 11 46.578 37.725 46.578 68.889v6.557c24.686-24.477 40-58.392 40-95.82z"/><circle cx="256" cy="241" r="30"/><path d="m382.74 150.473 38.79-38.79c8.932 5.277 19.344 8.317 30.47 8.317 33.137 0 60-26.863 60-60s-26.863-60-60-60-60 26.863-60 60c0 11.126 3.04 21.538 8.317 30.47l-38.79 38.79c7.694 6.417 14.796 13.519 21.213 21.213z"/><path d="m129.26 361.527-38.79 38.79c-8.932-5.277-19.344-8.317-30.47-8.317-33.137 0-60 26.863-60 60s26.863 60 60 60 60-26.863 60-60c0-11.126-3.04-21.538-8.317-30.47l38.79-38.79c-7.694-6.417-14.796-13.519-21.213-21.213z"/></g></svg>