<?xml version="1.0"?>
<svg xmlns="http://www.w3.org/2000/svg" xmlns:xlink="http://www.w3.org/1999/xlink" xmlns:svgjs="http://svgjs.com/svgjs" version="1.1" width="512" height="512" x="0" y="0" viewBox="0 0 64 64" style="enable-background:new 0 0 512 512" xml:space="preserve" class=""><g><path xmlns="http://www.w3.org/2000/svg" d="m2 52v11h2v-11a3.00328 3.00328 0 0 1 3-3h11.22949a2.9841 2.9841 0 0 1 1.11426.21484l4.28467 1.71387a1.00362 1.00362 0 0 0 .90137-.08057l7.17675-4.48535.91895 1.37842-8.75586 6.1294-4.498-1.79932a1.00033 1.00033 0 0 0 -1.37163.92871v10h2v-8.523l3.62842 1.45166a1.00061 1.00061 0 0 0 .94482-.10937l10-7a1.0002 1.0002 0 0 0 .25879-1.374l-2-3a1.00106 1.00106 0 0 0 -1.36182-.29345l-7.56982 4.73146-3.814-1.52588a4.979 4.979 0 0 0 -1.8569-.35742h-.77a6 6 0 1 0 -8.91906 0h-1.54043a5.00588 5.00588 0 0 0 -5 5zm11-13a4 4 0 1 1 -4 4 4.00458 4.00458 0 0 1 4-4z" fill="#ff851b" data-original="#000000"/><path xmlns="http://www.w3.org/2000/svg" d="m6 52h2v11h-2z" fill="#ff851b" data-original="#000000"/><path xmlns="http://www.w3.org/2000/svg" d="m40 52v11h2v-11a3.00328 3.00328 0 0 1 3-3h12a3.00328 3.00328 0 0 1 3 3v11h2v-11a5.00588 5.00588 0 0 0 -5-5h-1.54047a6 6 0 1 0 -8.91906 0h-1.54047a5.00588 5.00588 0 0 0 -5 5zm11-13a4 4 0 1 1 -4 4 4.00458 4.00458 0 0 1 4-4z" fill="#ff851b" data-original="#000000"/><path xmlns="http://www.w3.org/2000/svg" d="m56 52h2v11h-2z" fill="#ff851b" data-original="#000000"/><path xmlns="http://www.w3.org/2000/svg" d="m44 52h2v11h-2z" fill="#ff851b" data-original="#000000"/><path xmlns="http://www.w3.org/2000/svg" d="m18.503 27.574h15.621v2h-15.621z" transform="matrix(.705 -.71 .71 .705 -12.503 27.11)" fill="#ff851b" data-original="#000000"/><path xmlns="http://www.w3.org/2000/svg" d="m11.985 24.389h13.153v2h-13.153z" transform="matrix(.237 -.971 .971 .237 -10.507 37.393)" fill="#ff851b" data-original="#000000"/><path xmlns="http://www.w3.org/2000/svg" d="m22.553 34.917h14.773v2h-14.773z" transform="matrix(.946 -.325 .325 .946 -10.052 11.686)" fill="#ff851b" data-original="#000000"/><path xmlns="http://www.w3.org/2000/svg" d="m51 1a12 12 0 1 0 12 12 12.01375 12.01375 0 0 0 -12-12zm0 22a10 10 0 1 1 10-10 10.01114 10.01114 0 0 1 -10 10z" fill="#ff851b" data-original="#000000"/><rect xmlns="http://www.w3.org/2000/svg" height="2" rx="1" width="2" x="55" y="9" fill="#ff851b" data-original="#000000"/><rect xmlns="http://www.w3.org/2000/svg" height="2" rx="1" width="2" x="45" y="9" fill="#ff851b" data-original="#000000"/><path xmlns="http://www.w3.org/2000/svg" d="m51 15c-3.36426 0-6 1.75684-6 4h2c0-.94434 1.71045-2 4-2s4 1.05566 4 2h2c0-2.24316-2.63574-4-6-4z" fill="#ff851b" data-original="#000000"/><path xmlns="http://www.w3.org/2000/svg" d="m50 28h2v2h-2z" fill="#ff851b" data-original="#000000"/><path xmlns="http://www.w3.org/2000/svg" d="m50 32h2v2h-2z" fill="#ff851b" data-original="#000000"/></g></svg>
