<svg width="20" height="20" viewBox="0 0 20 20" fill="none" xmlns="http://www.w3.org/2000/svg">
<path d="M10.0018 7.80005C9.71274 7.80005 9.42653 7.85698 9.15949 7.96759C8.89246 8.0782 8.64982 8.24033 8.44544 8.44471C8.24106 8.64909 8.07893 8.89172 7.96832 9.15876C7.85771 9.4258 7.80078 9.71201 7.80078 10.001C7.80078 10.2901 7.85771 10.5763 7.96832 10.8433C8.07893 11.1104 8.24106 11.353 8.44544 11.5574C8.64982 11.7618 8.89246 11.9239 9.15949 12.0345C9.42653 12.1451 9.71274 12.202 10.0018 12.202C10.5855 12.2019 11.1453 11.9699 11.558 11.557C11.9707 11.1442 12.2024 10.5843 12.2023 10.0005C12.2021 9.41681 11.9701 8.85703 11.5573 8.44435C11.1444 8.03168 10.5845 7.79992 10.0008 7.80005H10.0018ZM10.0018 5.20005C10.2907 5.19992 10.5767 5.14288 10.8436 5.0322C11.1105 4.92152 11.3529 4.75936 11.5571 4.55498C11.7613 4.3506 11.9233 4.108 12.0337 3.84103C12.1441 3.57406 12.2009 3.28796 12.2008 2.99905C12.2006 2.71014 12.1436 2.42409 12.0329 2.15722C11.9223 1.89036 11.7601 1.6479 11.5557 1.44371C11.3513 1.23951 11.1087 1.07757 10.8418 0.967131C10.5748 0.856692 10.2887 0.799918 9.99978 0.800049C9.4163 0.800314 8.85683 1.03235 8.44444 1.44512C8.03205 1.85789 7.80052 2.41757 7.80078 3.00105C7.80105 3.58453 8.03309 4.144 8.44585 4.55639C8.85862 4.96878 9.41831 5.20031 10.0018 5.20005ZM10.0018 14.8C9.41804 14.8 8.85821 15.0319 8.44544 15.4447C8.03267 15.8575 7.80078 16.4173 7.80078 17.001C7.80078 17.5848 8.03267 18.1446 8.44544 18.5574C8.85821 18.9702 9.41804 19.202 10.0018 19.202C10.5855 19.202 11.1454 18.9702 11.5581 18.5574C11.9709 18.1446 12.2028 17.5848 12.2028 17.001C12.2028 16.4173 11.9709 15.8575 11.5581 15.4447C11.1454 15.0319 10.5855 14.8 10.0018 14.8Z" fill="#FF851B"/>
</svg>
