<svg width="22" height="17" viewBox="0 0 22 17" fill="none" xmlns="http://www.w3.org/2000/svg">
<path fill-rule="evenodd" clip-rule="evenodd" d="M6.50095 15.25C6.50095 15.0511 6.57997 14.8603 6.72062 14.7197C6.86127 14.579 7.05204 14.5 7.25095 14.5H20.7509C20.9499 14.5 21.1406 14.579 21.2813 14.7197C21.4219 14.8603 21.5009 15.0511 21.5009 15.25C21.5009 15.4489 21.4219 15.6397 21.2813 15.7803C21.1406 15.921 20.9499 16 20.7509 16H7.25095C7.05204 16 6.86127 15.921 6.72062 15.7803C6.57997 15.6397 6.50095 15.4489 6.50095 15.25ZM6.50095 9.25C6.50095 9.05109 6.57997 8.86032 6.72062 8.71967C6.86127 8.57902 7.05204 8.5 7.25095 8.5H20.7509C20.9499 8.5 21.1406 8.57902 21.2813 8.71967C21.4219 8.86032 21.5009 9.05109 21.5009 9.25C21.5009 9.44891 21.4219 9.63968 21.2813 9.78033C21.1406 9.92098 20.9499 10 20.7509 10H7.25095C7.05204 10 6.86127 9.92098 6.72062 9.78033C6.57997 9.63968 6.50095 9.44891 6.50095 9.25ZM6.50095 3.25C6.50095 3.05109 6.57997 2.86032 6.72062 2.71967C6.86127 2.57902 7.05204 2.5 7.25095 2.5H20.7509C20.9499 2.5 21.1406 2.57902 21.2813 2.71967C21.4219 2.86032 21.5009 3.05109 21.5009 3.25C21.5009 3.44891 21.4219 3.63968 21.2813 3.78033C21.1406 3.92098 20.9499 4 20.7509 4H7.25095C7.05204 4 6.86127 3.92098 6.72062 3.78033C6.57997 3.63968 6.50095 3.44891 6.50095 3.25ZM4.78195 1.219C4.85179 1.28867 4.90721 1.37143 4.94502 1.46255C4.98283 1.55367 5.00229 1.65135 5.00229 1.75C5.00229 1.84865 4.98283 1.94633 4.94502 2.03745C4.90721 2.12857 4.85179 2.21133 4.78195 2.281L2.53195 4.531C2.46228 4.60084 2.37952 4.65626 2.2884 4.69407C2.19728 4.73188 2.0996 4.75134 2.00095 4.75134C1.9023 4.75134 1.80461 4.73188 1.7135 4.69407C1.62238 4.65626 1.53962 4.60084 1.46995 4.531L0.719948 3.781C0.650216 3.71127 0.594901 3.62848 0.557162 3.53737C0.519424 3.44626 0.5 3.34861 0.5 3.25C0.5 3.15138 0.519424 3.05373 0.557162 2.96262C0.594901 2.87151 0.650216 2.78873 0.719948 2.719C0.789679 2.64927 0.872463 2.59395 0.963572 2.55621C1.05468 2.51847 1.15233 2.49905 1.25095 2.49905C1.34956 2.49905 1.44721 2.51847 1.53832 2.55621C1.62943 2.59395 1.71222 2.64927 1.78195 2.719L2.00095 2.9395L3.71995 1.219C3.78962 1.14915 3.87238 1.09374 3.9635 1.05593C4.05461 1.01812 4.1523 0.998657 4.25095 0.998657C4.3496 0.998657 4.44728 1.01812 4.5384 1.05593C4.62952 1.09374 4.71228 1.14915 4.78195 1.219V1.219ZM4.78195 7.219C4.85179 7.28867 4.90721 7.37143 4.94502 7.46255C4.98283 7.55367 5.00229 7.65135 5.00229 7.75C5.00229 7.84865 4.98283 7.94633 4.94502 8.03745C4.90721 8.12857 4.85179 8.21133 4.78195 8.281L2.53195 10.531C2.46228 10.6008 2.37952 10.6563 2.2884 10.6941C2.19728 10.7319 2.0996 10.7513 2.00095 10.7513C1.9023 10.7513 1.80461 10.7319 1.7135 10.6941C1.62238 10.6563 1.53962 10.6008 1.46995 10.531L0.719948 9.781C0.579118 9.64017 0.5 9.44916 0.5 9.25C0.5 9.05083 0.579118 8.85983 0.719948 8.719C0.860777 8.57817 1.05178 8.49905 1.25095 8.49905C1.45011 8.49905 1.64112 8.57817 1.78195 8.719L2.00095 8.9395L3.71995 7.219C3.78962 7.14915 3.87238 7.09374 3.9635 7.05593C4.05461 7.01812 4.1523 6.99866 4.25095 6.99866C4.3496 6.99866 4.44728 7.01812 4.5384 7.05593C4.62952 7.09374 4.71228 7.14915 4.78195 7.219V7.219ZM4.78195 13.219C4.85179 13.2887 4.90721 13.3714 4.94502 13.4625C4.98283 13.5537 5.00229 13.6513 5.00229 13.75C5.00229 13.8486 4.98283 13.9463 4.94502 14.0374C4.90721 14.1286 4.85179 14.2113 4.78195 14.281L2.53195 16.531C2.46228 16.6008 2.37952 16.6563 2.2884 16.6941C2.19728 16.7319 2.0996 16.7513 2.00095 16.7513C1.9023 16.7513 1.80461 16.7319 1.7135 16.6941C1.62238 16.6563 1.53962 16.6008 1.46995 16.531L0.719948 15.781C0.579118 15.6402 0.5 15.4492 0.5 15.25C0.5 15.0508 0.579118 14.8598 0.719948 14.719C0.860777 14.5782 1.05178 14.4991 1.25095 14.4991C1.45011 14.4991 1.64112 14.5782 1.78195 14.719L2.00095 14.9395L3.71995 13.219C3.78962 13.1492 3.87238 13.0937 3.9635 13.0559C4.05461 13.0181 4.1523 12.9987 4.25095 12.9987C4.3496 12.9987 4.44728 13.0181 4.5384 13.0559C4.62952 13.0937 4.71228 13.1492 4.78195 13.219V13.219Z" fill="black"/>
</svg>
