<svg width="20" height="20" viewBox="0 0 20 20" fill="none" xmlns="http://www.w3.org/2000/svg">
<path d="M17.9297 17.0703V5.42969C17.9297 5.19531 17.8385 5 17.6562 4.84375C17.5 4.66146 17.3047 4.57031 17.0703 4.57031H9.53125L10.625 7.73438H11.8359V6.67969H12.8906V7.73438H16.6797V8.82812H15.0781C14.6875 10.1302 14.0234 11.3021 13.0859 12.3438L15.8203 15.0781L15.0391 15.8203L12.4609 13.2422L13.3203 15.8203L11.6797 17.9297H17.0703C17.3047 17.9297 17.5 17.8516 17.6562 17.6953C17.8385 17.513 17.9297 17.3047 17.9297 17.0703ZM10.9766 8.82812L11.6406 10.7812L12.3438 11.7188C13.151 10.8333 13.724 9.86979 14.0625 8.82812H10.9766ZM5.82031 13.3203C7.01823 13.3203 7.98177 12.9427 8.71094 12.1875C9.46615 11.4323 9.84375 10.4557 9.84375 9.25781C9.84375 9.23177 9.80469 8.94531 9.72656 8.39844H5.82031V9.84375H8.28125C8.22917 10.3385 7.99479 10.7943 7.57812 11.2109C7.16146 11.6276 6.57552 11.8359 5.82031 11.8359C5.09115 11.8359 4.46615 11.5755 3.94531 11.0547C3.45052 10.5339 3.20312 9.90885 3.20312 9.17969C3.20312 8.42448 3.45052 7.78646 3.94531 7.26562C4.46615 6.74479 5.09115 6.48438 5.82031 6.48438C6.52344 6.48438 7.09635 6.70573 7.53906 7.14844L8.63281 6.09375C7.82552 5.36458 6.88802 5 5.82031 5C4.67448 5 3.69792 5.41667 2.89062 6.25C2.08333 7.05729 1.67969 8.03385 1.67969 9.17969C1.67969 10.3255 2.08333 11.3021 2.89062 12.1094C3.69792 12.9167 4.67448 13.3203 5.82031 13.3203ZM17.5 3.32031C17.9427 3.32031 18.3333 3.48958 18.6719 3.82812C19.0104 4.16667 19.1797 4.55729 19.1797 5V17.5C19.1797 17.9427 19.0104 18.3333 18.6719 18.6719C18.3333 19.0104 17.9427 19.1797 17.5 19.1797H10L9.17969 16.6797H2.5C2.05729 16.6797 1.66667 16.5104 1.32812 16.1719C0.989583 15.8333 0.820312 15.4427 0.820312 15V2.5C0.820312 2.05729 0.989583 1.66667 1.32812 1.32812C1.66667 0.989583 2.05729 0.820312 2.5 0.820312H8.32031L9.17969 3.32031H17.5Z" fill="#FF851B"/>
</svg>
