<?xml version="1.0" encoding="iso-8859-1"?>
<!-- Generator: Adobe Illustrator 19.0.0, SVG Export Plug-In . SVG Version: 6.00 Build 0)  -->
<svg version="1.1" id="Capa_1" xmlns="http://www.w3.org/2000/svg" xmlns:xlink="http://www.w3.org/1999/xlink" x="0px" y="0px"
	 viewBox="0 0 511.999 511.999" style="enable-background:new 0 0 511.999 511.999;" xml:space="preserve">
<g>
	<g>
		<path d="M504.251,399.55L305.495,55.296C295.164,37.402,276.66,26.72,255.999,26.72s-39.165,10.683-49.496,28.576L7.748,399.55
			c-10.331,17.894-10.331,39.259,0,57.153c10.331,17.893,28.834,28.576,49.496,28.576h397.511c20.661,0,39.165-10.683,49.496-28.576
			C514.581,438.809,514.581,417.444,504.251,399.55z M478.251,441.691c-4.905,8.494-13.688,13.565-23.496,13.565H57.244
			c-9.808,0-18.592-5.071-23.496-13.565c-4.904-8.494-4.904-18.637,0-27.131L232.503,70.306
			c4.905-8.494,13.688-13.565,23.496-13.565c9.808,0,18.592,5.071,23.496,13.565L478.251,414.56
			C483.155,423.054,483.155,433.197,478.251,441.691z" style="fill: #ff851b"/>
	</g>
</g>
<g>
	<g>
		<path d="M255.999,355.183c-11.036,0-20.015,8.979-20.015,20.015c0,11.036,8.979,20.015,20.015,20.015
			c11.036,0,20.015-8.979,20.015-20.015C276.014,364.162,267.035,355.183,255.999,355.183z" style="fill: #ff851b"/>
	</g>
</g>
<g>
	<g>
		<rect x="240.987" y="170.044" width="30.022" height="155.115" style="fill: #ff851b"/>
	</g>
</g>
</svg>
